<svg width="124" height="40" viewBox="0 0 124 40" fill="none" xmlns="http://www.w3.org/2000/svg">
<g clip-path="url(#clip0_4525_1219)">
<path d="M20.1507 37.1391C29.64 37.1391 37.3327 29.4436 37.3327 19.9509C37.3327 10.4581 29.64 2.7627 20.1507 2.7627C10.6614 2.7627 2.96875 10.4581 2.96875 19.9509C2.96875 29.4436 10.6614 37.1391 20.1507 37.1391Z" fill="#00214B"/>
<path fill-rule="evenodd" clip-rule="evenodd" d="M20.1502 2.88354C10.7277 2.88354 3.0889 10.5248 3.0889 19.9512C3.0889 29.3776 10.7277 37.0189 20.1502 37.0189C29.5728 37.0189 37.2116 29.3776 37.2116 19.9512C37.2116 10.5248 29.5728 2.88354 20.1502 2.88354ZM2.84766 19.9512C2.84766 10.3921 10.5941 2.64258 20.1502 2.64258C29.7064 2.64258 37.4528 10.3921 37.4528 19.9512C37.4528 29.5104 29.7064 37.2599 20.1502 37.2599C10.5941 37.2599 2.84766 29.5104 2.84766 19.9512Z" fill="#00214B"/>
<path d="M49.518 6.4865C49.2545 6.4865 49.0427 6.49684 48.8825 6.51751C48.7224 6.53819 48.5945 6.57178 48.4989 6.6183C48.4033 6.66481 48.3336 6.72684 48.2897 6.80436C48.2458 6.88189 48.2109 6.9775 48.1851 7.09121C48.1334 7.31345 48.1076 7.86647 48.1076 8.75027V13.9058C48.1076 14.3244 48.1127 14.6681 48.1231 14.9369C48.1334 15.2056 48.1489 15.4046 48.1696 15.5338C48.1902 15.663 48.2225 15.7742 48.2664 15.8672C48.3103 15.9602 48.3801 16.0377 48.4757 16.0998C48.5713 16.1618 48.6965 16.2083 48.8515 16.2393C49.0065 16.2703 49.2029 16.2858 49.4405 16.2858H49.7118V16.6425H44.9844V16.2858H45.2556C45.4881 16.2858 45.6793 16.2716 45.8291 16.2432C45.9789 16.2148 46.1016 16.1708 46.1972 16.1114C46.2928 16.052 46.3638 15.9796 46.4103 15.8943C46.4568 15.809 46.493 15.707 46.5188 15.5881C46.5447 15.4692 46.564 15.2689 46.577 14.9873C46.5899 14.7056 46.5963 14.3451 46.5963 13.9058V8.75027C46.5963 8.33163 46.5899 7.98664 46.577 7.7153C46.564 7.44395 46.5447 7.24885 46.5188 7.12997C46.493 7.01627 46.462 6.91807 46.4258 6.83537C46.3897 6.75268 46.3251 6.68549 46.2321 6.6338C46.1391 6.58212 46.0099 6.54465 45.8446 6.52139C45.6793 6.49813 45.4571 6.4865 45.1781 6.4865H44.9844V6.12988H56.6866V6.4865H56.5316C56.2681 6.4865 56.055 6.49684 55.8923 6.51751C55.7295 6.53819 55.6003 6.57178 55.5048 6.6183C55.4092 6.66481 55.3394 6.72684 55.2955 6.80436C55.2516 6.88189 55.2167 6.9775 55.1909 7.09121C55.1392 7.31345 55.1134 7.86647 55.1134 8.75027V13.9058C55.1134 14.3244 55.1173 14.6681 55.125 14.9369C55.1328 15.2056 55.147 15.4046 55.1676 15.5338C55.1883 15.6579 55.2206 15.7677 55.2645 15.8633C55.3084 15.9589 55.3782 16.0377 55.4738 16.0998C55.5693 16.1618 55.6946 16.2083 55.8496 16.2393C56.0046 16.2703 56.2035 16.2858 56.4464 16.2858H56.6866V16.6425H51.905V16.2858H52.2692C52.4965 16.2858 52.6851 16.2716 52.8349 16.2432C52.9848 16.2148 53.1075 16.1708 53.2031 16.1114C53.2986 16.052 53.3697 15.9796 53.4162 15.8943C53.4627 15.809 53.4988 15.707 53.5247 15.5881C53.5712 15.3503 53.5944 14.7896 53.5944 13.9058V8.75027C53.5944 7.91298 53.5712 7.37289 53.5247 7.12997C53.4988 7.01627 53.4678 6.91807 53.4317 6.83537C53.3955 6.75268 53.3309 6.68549 53.2379 6.6338C53.1449 6.58212 53.0158 6.54465 52.8504 6.52139C52.6851 6.49813 52.463 6.4865 52.184 6.4865H49.518ZM64.2117 15.4796H64.4984C64.4519 16.3634 64.0179 16.8053 63.1965 16.8053C62.8451 16.8053 62.5674 16.7122 62.3634 16.5262C62.1593 16.3401 62.0262 16.0636 61.9642 15.6966C61.4476 16.0636 60.9761 16.3401 60.5499 16.5262C60.1237 16.7122 59.7426 16.8053 59.4068 16.8053C58.978 16.8053 58.6086 16.6812 58.2986 16.4331C57.9886 16.185 57.8336 15.8569 57.8336 15.4485C57.8336 14.9162 58.0932 14.451 58.6124 14.0531C59.1317 13.6551 59.8485 13.2675 60.763 12.8902L61.9642 12.4018V12.0917C61.9642 11.6523 61.9358 11.3345 61.879 11.1381C61.8222 10.9417 61.6749 10.766 61.4373 10.6109C61.1996 10.4559 60.887 10.3783 60.4995 10.3783C59.7245 10.3783 59.2931 10.6367 59.2053 11.1536C59.1226 11.6808 58.9056 11.9444 58.5543 11.9444C58.2392 11.9444 58.0816 11.7945 58.0816 11.4947C58.0816 11.2001 58.2908 10.8835 58.7093 10.545C59.1278 10.2065 59.7788 10.0372 60.6623 10.0372C61.3184 10.0372 61.8273 10.1406 62.189 10.3473C62.5506 10.5541 62.7896 10.7892 62.9058 11.0528C63.0221 11.3164 63.0802 11.7195 63.0802 12.2622V14.8283C63.0802 15.4279 63.1112 15.8129 63.1732 15.9835C63.2352 16.154 63.3695 16.2393 63.5762 16.2393C63.9172 16.2393 64.129 15.9861 64.2117 15.4796ZM61.9642 12.7661L61.1195 13.1073C59.7865 13.6499 59.1201 14.3322 59.1201 15.1539C59.1201 15.4796 59.2053 15.7419 59.3758 15.9408C59.5463 16.1398 59.7685 16.2393 60.0423 16.2393C60.2851 16.2393 60.5667 16.1592 60.887 15.999C61.2073 15.8388 61.5664 15.5984 61.9642 15.278V12.7661ZM66.6219 10.0372H66.8311C66.919 10.3266 66.9629 10.6755 66.9629 11.0838C67.2935 10.7324 67.6487 10.4701 68.0285 10.2969C68.4082 10.1238 68.8099 10.0372 69.2336 10.0372C70.1119 10.0372 70.843 10.346 71.4268 10.9636C72.0106 11.5813 72.3025 12.3966 72.3025 13.4096C72.3025 14.4019 72.0093 15.2315 71.4229 15.8982C70.8365 16.5649 70.0654 16.8983 69.1096 16.8983C68.7169 16.8983 68.3411 16.8195 67.982 16.6618C67.6229 16.5042 67.2832 16.2703 66.9629 15.9602V18.3713C66.9629 19.1052 66.9771 19.5523 67.0055 19.7125C67.0339 19.8727 67.1153 19.9929 67.2496 20.073C67.384 20.1531 67.6345 20.1932 68.0014 20.1932V20.5498H64.6844V20.1932H64.9169C65.2838 20.1932 65.5227 20.1402 65.6338 20.0342C65.7449 19.9283 65.8094 19.8017 65.8275 19.6544C65.8456 19.5071 65.8547 19.0794 65.8547 18.3713V12.6033C65.8547 11.9263 65.8456 11.4999 65.8275 11.3241C65.8094 11.1484 65.7358 11.014 65.6067 10.921C65.4775 10.828 65.2476 10.7815 64.9169 10.7815H64.6844V10.4248C65.1959 10.3732 65.8417 10.2439 66.6219 10.0372ZM66.9629 15.4485C67.2419 15.7897 67.5377 16.0468 67.8502 16.2199C68.1628 16.3931 68.4922 16.4796 68.8383 16.4796C69.4222 16.4796 69.9311 16.229 70.3651 15.7276C70.799 15.2263 71.016 14.4278 71.016 13.3321C71.016 12.3811 70.8068 11.6704 70.3883 11.2001C69.9698 10.7298 69.4712 10.4946 68.8926 10.4946C68.5361 10.4946 68.1977 10.5851 67.8774 10.766C67.557 10.9469 67.2522 11.2208 66.9629 11.5877V15.4485ZM73.5192 13.4561C73.5192 12.4845 73.8447 11.6717 74.4957 11.0179C75.1467 10.3641 75.9475 10.0372 76.8981 10.0372C77.854 10.0372 78.6574 10.3654 79.3083 11.0218C79.9593 11.6782 80.2848 12.4896 80.2848 13.4561C80.2848 14.526 79.9542 15.3671 79.2928 15.9796C78.6315 16.5921 77.8333 16.8983 76.8981 16.8983C75.963 16.8983 75.1661 16.5869 74.5073 15.9641C73.8486 15.3413 73.5192 14.5053 73.5192 13.4561ZM74.8057 13.4949C74.8057 14.6216 74.9891 15.4111 75.3559 15.8633C75.7228 16.3156 76.2368 16.5417 76.8981 16.5417C77.575 16.5417 78.0929 16.3156 78.452 15.8633C78.8111 15.4111 78.9906 14.6216 78.9906 13.4949C78.9906 12.3785 78.8124 11.5826 78.4559 11.1071C78.0994 10.6316 77.5801 10.3938 76.8981 10.3938C76.2213 10.3938 75.7034 10.6303 75.3443 11.1032C74.9852 11.5761 74.8057 12.3733 74.8057 13.4949ZM85.0665 13.1538C85.516 13.1796 85.8996 13.2403 86.2173 13.336C86.5351 13.4316 86.7947 13.5556 86.9962 13.7081C87.1977 13.8606 87.3449 14.0376 87.4379 14.2391C87.5309 14.4407 87.5774 14.6578 87.5774 14.8904C87.5774 15.216 87.5025 15.4899 87.3527 15.7121C87.2028 15.9344 86.9833 16.114 86.6939 16.2509C86.4046 16.3879 86.0481 16.4874 85.6245 16.5494C85.2008 16.6114 84.7126 16.6425 84.1597 16.6425H81.2691V16.2781H81.3698C81.5455 16.2781 81.6901 16.2677 81.8038 16.2471C81.9175 16.2264 82.0092 16.198 82.0789 16.1618C82.1487 16.1256 82.2016 16.0804 82.2378 16.0261C82.2739 15.9719 82.2998 15.9111 82.3153 15.8439C82.3308 15.7716 82.3437 15.6488 82.354 15.4757C82.3644 15.3025 82.3695 15.0816 82.3695 14.8128V11.9599C82.3695 11.6963 82.3657 11.4973 82.3579 11.3629C82.3502 11.2285 82.3359 11.1226 82.3153 11.0451C82.2946 10.9727 82.2688 10.9107 82.2378 10.859C82.2068 10.8073 82.1564 10.766 82.0867 10.7349C82.0169 10.7039 81.9213 10.6807 81.7999 10.6652C81.6785 10.6497 81.5145 10.6419 81.3078 10.6419V10.293C81.747 10.2724 82.1809 10.2569 82.6098 10.2465C83.0386 10.2362 83.4778 10.231 83.9272 10.231C85.0122 10.231 85.8221 10.3421 86.3568 10.5644C86.8916 10.7866 87.1589 11.151 87.1589 11.6575C87.1589 12.071 86.9962 12.4018 86.6707 12.6498C86.3452 12.8979 85.8105 13.0659 85.0665 13.1538ZM83.5088 13.0142C83.9789 13.0142 84.369 12.9935 84.679 12.9522C84.989 12.9109 85.237 12.8424 85.423 12.7468C85.609 12.6511 85.7394 12.5232 85.8143 12.363C85.8892 12.2028 85.9267 12.0038 85.9267 11.766C85.9267 11.5748 85.906 11.4068 85.8647 11.2621C85.8234 11.1174 85.7342 10.9972 85.5973 10.9016C85.4604 10.806 85.2628 10.7337 85.0045 10.6846C84.7461 10.6355 84.4026 10.6109 83.9737 10.6109H83.7451C83.665 10.6109 83.5863 10.6161 83.5088 10.6264V13.0142ZM83.5088 14.6965C83.5088 14.986 83.5126 15.2224 83.5204 15.4059C83.5281 15.5894 83.5372 15.7225 83.5475 15.8052C83.5578 15.8827 83.5798 15.9499 83.6134 16.0067C83.647 16.0636 83.6986 16.1127 83.7684 16.154C83.8381 16.1954 83.9298 16.2264 84.0435 16.2471C84.1572 16.2677 84.2992 16.2781 84.4697 16.2781C85.7097 16.2781 86.3297 15.7897 86.3297 14.8128C86.3297 14.5596 86.2896 14.3412 86.2096 14.1577C86.1295 13.9743 85.9964 13.8218 85.8104 13.7003C85.6245 13.5789 85.379 13.4884 85.0742 13.429C84.7694 13.3696 84.3948 13.3398 83.9505 13.3398H83.7335C83.6612 13.3398 83.5863 13.3424 83.5088 13.3476V14.6965ZM90.7083 13.0142C91.008 12.9987 91.2844 12.991 91.5376 12.991C91.7546 12.991 91.9858 13 92.2312 13.0181C92.4766 13.0362 92.7207 13.0711 92.9635 13.1228C93.2064 13.1744 93.4376 13.2442 93.6571 13.3321C93.8767 13.4199 94.0718 13.5349 94.2423 13.6771C94.4128 13.8192 94.5484 13.9898 94.6491 14.1887C94.7499 14.3877 94.8002 14.6216 94.8002 14.8904C94.8002 15.216 94.7253 15.4899 94.5755 15.7121C94.4257 15.9344 94.2061 16.114 93.9168 16.2509C93.6274 16.3879 93.271 16.4874 92.8473 16.5494C92.4236 16.6114 91.9354 16.6425 91.3826 16.6425H88.4919V16.2781H88.5926C88.7683 16.2781 88.913 16.2677 89.0266 16.2471C89.1403 16.2264 89.232 16.198 89.3017 16.1618C89.3715 16.1256 89.4244 16.0804 89.4606 16.0261C89.4968 15.9719 89.5226 15.9111 89.5381 15.8439C89.5536 15.7716 89.5665 15.6488 89.5769 15.4757C89.5872 15.3025 89.5924 15.0816 89.5924 14.8128V12.4715C89.5924 12.0994 89.5885 11.8035 89.5807 11.5839C89.573 11.3642 89.5639 11.2156 89.5536 11.1381C89.5278 10.983 89.4503 10.8629 89.3211 10.7776C89.192 10.6923 88.9698 10.6497 88.6546 10.6497H88.4919V10.293H91.8631V10.6497H91.6461C91.3154 10.6497 91.0855 10.6962 90.9563 10.7892C90.8272 10.8822 90.7523 11.0166 90.7316 11.1924C90.7161 11.3732 90.7083 11.7996 90.7083 12.4715V13.0142ZM90.7083 14.6965C90.7083 14.986 90.7161 15.2224 90.7316 15.4059C90.7471 15.5894 90.76 15.7225 90.7703 15.8052C90.7807 15.8827 90.8026 15.9499 90.8362 16.0067C90.8698 16.0636 90.9215 16.1127 90.9912 16.154C91.061 16.1954 91.1527 16.2264 91.2663 16.2471C91.38 16.2677 91.5221 16.2781 91.6926 16.2781C92.9325 16.2781 93.5525 15.7897 93.5525 14.8128C93.5525 14.5596 93.5125 14.3412 93.4324 14.1577C93.3523 13.9743 93.2193 13.8218 93.0333 13.7003C92.8473 13.5789 92.6019 13.4884 92.2971 13.429C91.9922 13.3696 91.6177 13.3398 91.1733 13.3398H90.9447C90.8646 13.3398 90.7858 13.3424 90.7083 13.3476V14.6965ZM97.8847 10.0372V14.464C97.8847 15.141 97.895 15.5674 97.9157 15.7431C97.9363 15.9189 98.0113 16.0533 98.1404 16.1463C98.2696 16.2393 98.4995 16.2858 98.8302 16.2858H98.9929V16.6425H95.5752V16.2858H95.8387C96.2056 16.2858 96.4445 16.2329 96.5556 16.1269C96.6667 16.021 96.7312 15.8943 96.7493 15.747C96.7674 15.5997 96.7765 15.172 96.7765 14.464V12.5413C96.7765 11.7971 96.7416 11.3422 96.6718 11.1768C96.6021 11.0115 96.5091 10.9081 96.3928 10.8667C96.2766 10.8254 96.0738 10.8047 95.7845 10.8047H95.5752V10.4481C96.4949 10.3551 97.2079 10.2181 97.7142 10.0372H97.8847ZM105.634 12.4405H101.209C101.189 12.7455 101.178 12.9729 101.178 13.1228C101.178 14.2391 101.353 15.0777 101.701 15.6385C102.05 16.1993 102.571 16.4796 103.263 16.4796C104.203 16.4796 104.87 16.0584 105.263 15.216H105.634C105.469 15.7432 105.141 16.1553 104.65 16.4525C104.159 16.7497 103.625 16.8983 103.046 16.8983C102.509 16.8983 102.001 16.7626 101.523 16.4913C101.045 16.2199 100.654 15.8362 100.349 15.34C100.044 14.8438 99.8919 14.2417 99.8919 13.5336C99.8919 12.531 100.186 11.6976 100.775 11.0334C101.364 10.3693 102.101 10.0372 102.984 10.0372C103.816 10.0372 104.459 10.2905 104.914 10.797C105.368 11.3035 105.609 11.8513 105.634 12.4405ZM104.278 12.1304C104.294 12.0115 104.302 11.9056 104.302 11.8126C104.302 11.3577 104.168 11.005 103.902 10.7543C103.636 10.5037 103.31 10.3783 102.922 10.3783C101.982 10.3783 101.421 10.9624 101.24 12.1304H104.278Z" fill="#333333"/>
<path d="M49.518 6.4865C49.2545 6.4865 49.0427 6.49684 48.8825 6.51751C48.7224 6.53819 48.5945 6.57178 48.4989 6.6183C48.4033 6.66481 48.3336 6.72684 48.2897 6.80436C48.2458 6.88189 48.2109 6.9775 48.1851 7.09121C48.1334 7.31345 48.1076 7.86647 48.1076 8.75027V13.9058C48.1076 14.3244 48.1127 14.6681 48.1231 14.9369C48.1334 15.2056 48.1489 15.4046 48.1696 15.5338C48.1902 15.663 48.2225 15.7742 48.2664 15.8672C48.3103 15.9602 48.3801 16.0377 48.4757 16.0998C48.5713 16.1618 48.6965 16.2083 48.8515 16.2393C49.0065 16.2703 49.2029 16.2858 49.4405 16.2858H49.7118V16.6425H44.9844V16.2858H45.2556C45.4881 16.2858 45.6793 16.2716 45.8291 16.2432C45.9789 16.2148 46.1016 16.1708 46.1972 16.1114C46.2928 16.052 46.3638 15.9796 46.4103 15.8943C46.4568 15.809 46.493 15.707 46.5188 15.5881C46.5447 15.4692 46.564 15.2689 46.577 14.9873C46.5899 14.7056 46.5963 14.3451 46.5963 13.9058V8.75027C46.5963 8.33163 46.5899 7.98664 46.577 7.7153C46.564 7.44395 46.5447 7.24885 46.5188 7.12997C46.493 7.01627 46.462 6.91807 46.4258 6.83537C46.3897 6.75268 46.3251 6.68549 46.2321 6.6338C46.1391 6.58212 46.0099 6.54465 45.8446 6.52139C45.6793 6.49813 45.4571 6.4865 45.1781 6.4865H44.9844V6.12988H56.6866V6.4865H56.5316C56.2681 6.4865 56.055 6.49684 55.8923 6.51751C55.7295 6.53819 55.6003 6.57178 55.5048 6.6183C55.4092 6.66481 55.3394 6.72684 55.2955 6.80436C55.2516 6.88189 55.2167 6.9775 55.1909 7.09121C55.1392 7.31345 55.1134 7.86647 55.1134 8.75027V13.9058C55.1134 14.3244 55.1173 14.6681 55.125 14.9369C55.1328 15.2056 55.147 15.4046 55.1676 15.5338C55.1883 15.6579 55.2206 15.7677 55.2645 15.8633C55.3084 15.9589 55.3782 16.0377 55.4738 16.0998C55.5693 16.1618 55.6946 16.2083 55.8496 16.2393C56.0046 16.2703 56.2035 16.2858 56.4464 16.2858H56.6866V16.6425H51.905V16.2858H52.2692C52.4965 16.2858 52.6851 16.2716 52.8349 16.2432C52.9848 16.2148 53.1075 16.1708 53.2031 16.1114C53.2986 16.052 53.3697 15.9796 53.4162 15.8943C53.4627 15.809 53.4988 15.707 53.5247 15.5881C53.5712 15.3503 53.5944 14.7896 53.5944 13.9058V8.75027C53.5944 7.91298 53.5712 7.37289 53.5247 7.12997C53.4988 7.01627 53.4678 6.91807 53.4317 6.83537C53.3955 6.75268 53.3309 6.68549 53.2379 6.6338C53.1449 6.58212 53.0158 6.54465 52.8504 6.52139C52.6851 6.49813 52.463 6.4865 52.184 6.4865H49.518ZM64.2117 15.4796H64.4984C64.4519 16.3634 64.0179 16.8053 63.1965 16.8053C62.8451 16.8053 62.5674 16.7122 62.3634 16.5262C62.1593 16.3401 62.0262 16.0636 61.9642 15.6966C61.4476 16.0636 60.9761 16.3401 60.5499 16.5262C60.1237 16.7122 59.7426 16.8053 59.4068 16.8053C58.978 16.8053 58.6086 16.6812 58.2986 16.4331C57.9886 16.185 57.8336 15.8569 57.8336 15.4485C57.8336 14.9162 58.0932 14.451 58.6124 14.0531C59.1317 13.6551 59.8485 13.2675 60.763 12.8902L61.9642 12.4018V12.0917C61.9642 11.6523 61.9358 11.3345 61.879 11.1381C61.8222 10.9417 61.6749 10.766 61.4373 10.6109C61.1996 10.4559 60.887 10.3783 60.4995 10.3783C59.7245 10.3783 59.2931 10.6367 59.2053 11.1536C59.1226 11.6808 58.9056 11.9444 58.5543 11.9444C58.2392 11.9444 58.0816 11.7945 58.0816 11.4947C58.0816 11.2001 58.2908 10.8835 58.7093 10.545C59.1278 10.2065 59.7788 10.0372 60.6623 10.0372C61.3184 10.0372 61.8273 10.1406 62.189 10.3473C62.5506 10.5541 62.7896 10.7892 62.9058 11.0528C63.0221 11.3164 63.0802 11.7195 63.0802 12.2622V14.8283C63.0802 15.4279 63.1112 15.8129 63.1732 15.9835C63.2352 16.154 63.3695 16.2393 63.5762 16.2393C63.9172 16.2393 64.129 15.9861 64.2117 15.4796ZM61.9642 12.7661L61.1195 13.1073C59.7865 13.6499 59.1201 14.3322 59.1201 15.1539C59.1201 15.4796 59.2053 15.7419 59.3758 15.9408C59.5463 16.1398 59.7685 16.2393 60.0423 16.2393C60.2851 16.2393 60.5667 16.1592 60.887 15.999C61.2073 15.8388 61.5664 15.5984 61.9642 15.278V12.7661ZM66.6219 10.0372H66.8311C66.919 10.3266 66.9629 10.6755 66.9629 11.0838C67.2935 10.7324 67.6487 10.4701 68.0285 10.2969C68.4082 10.1238 68.8099 10.0372 69.2336 10.0372C70.1119 10.0372 70.843 10.346 71.4268 10.9636C72.0106 11.5813 72.3025 12.3966 72.3025 13.4096C72.3025 14.4019 72.0093 15.2315 71.4229 15.8982C70.8365 16.5649 70.0654 16.8983 69.1096 16.8983C68.7169 16.8983 68.3411 16.8195 67.982 16.6618C67.6229 16.5042 67.2832 16.2703 66.9629 15.9602V18.3713C66.9629 19.1052 66.9771 19.5523 67.0055 19.7125C67.0339 19.8727 67.1153 19.9929 67.2496 20.073C67.384 20.1531 67.6345 20.1932 68.0014 20.1932V20.5498H64.6844V20.1932H64.9169C65.2838 20.1932 65.5227 20.1402 65.6338 20.0342C65.7449 19.9283 65.8094 19.8017 65.8275 19.6544C65.8456 19.5071 65.8547 19.0794 65.8547 18.3713V12.6033C65.8547 11.9263 65.8456 11.4999 65.8275 11.3241C65.8094 11.1484 65.7358 11.014 65.6067 10.921C65.4775 10.828 65.2476 10.7815 64.9169 10.7815H64.6844V10.4248C65.1959 10.3732 65.8417 10.2439 66.6219 10.0372ZM66.9629 15.4485C67.2419 15.7897 67.5377 16.0468 67.8502 16.2199C68.1628 16.3931 68.4922 16.4796 68.8383 16.4796C69.4222 16.4796 69.9311 16.229 70.3651 15.7276C70.799 15.2263 71.016 14.4278 71.016 13.3321C71.016 12.3811 70.8068 11.6704 70.3883 11.2001C69.9698 10.7298 69.4712 10.4946 68.8926 10.4946C68.5361 10.4946 68.1977 10.5851 67.8774 10.766C67.557 10.9469 67.2522 11.2208 66.9629 11.5877V15.4485ZM73.5192 13.4561C73.5192 12.4845 73.8447 11.6717 74.4957 11.0179C75.1467 10.3641 75.9475 10.0372 76.8981 10.0372C77.854 10.0372 78.6574 10.3654 79.3083 11.0218C79.9593 11.6782 80.2848 12.4896 80.2848 13.4561C80.2848 14.526 79.9542 15.3671 79.2928 15.9796C78.6315 16.5921 77.8333 16.8983 76.8981 16.8983C75.963 16.8983 75.1661 16.5869 74.5073 15.9641C73.8486 15.3413 73.5192 14.5053 73.5192 13.4561ZM74.8057 13.4949C74.8057 14.6216 74.9891 15.4111 75.3559 15.8633C75.7228 16.3156 76.2368 16.5417 76.8981 16.5417C77.575 16.5417 78.0929 16.3156 78.452 15.8633C78.8111 15.4111 78.9906 14.6216 78.9906 13.4949C78.9906 12.3785 78.8124 11.5826 78.4559 11.1071C78.0994 10.6316 77.5801 10.3938 76.8981 10.3938C76.2213 10.3938 75.7034 10.6303 75.3443 11.1032C74.9852 11.5761 74.8057 12.3733 74.8057 13.4949ZM85.0665 13.1538C85.516 13.1796 85.8996 13.2403 86.2173 13.336C86.5351 13.4316 86.7947 13.5556 86.9962 13.7081C87.1977 13.8606 87.3449 14.0376 87.4379 14.2391C87.5309 14.4407 87.5774 14.6578 87.5774 14.8904C87.5774 15.216 87.5025 15.4899 87.3527 15.7121C87.2028 15.9344 86.9833 16.114 86.6939 16.2509C86.4046 16.3879 86.0481 16.4874 85.6245 16.5494C85.2008 16.6114 84.7126 16.6425 84.1597 16.6425H81.2691V16.2781H81.3698C81.5455 16.2781 81.6901 16.2677 81.8038 16.2471C81.9175 16.2264 82.0092 16.198 82.0789 16.1618C82.1487 16.1256 82.2016 16.0804 82.2378 16.0261C82.2739 15.9719 82.2998 15.9111 82.3153 15.8439C82.3308 15.7716 82.3437 15.6488 82.354 15.4757C82.3644 15.3025 82.3695 15.0816 82.3695 14.8128V11.9599C82.3695 11.6963 82.3657 11.4973 82.3579 11.3629C82.3502 11.2285 82.3359 11.1226 82.3153 11.0451C82.2946 10.9727 82.2688 10.9107 82.2378 10.859C82.2068 10.8073 82.1564 10.766 82.0867 10.7349C82.0169 10.7039 81.9213 10.6807 81.7999 10.6652C81.6785 10.6497 81.5145 10.6419 81.3078 10.6419V10.293C81.747 10.2724 82.1809 10.2569 82.6098 10.2465C83.0386 10.2362 83.4778 10.231 83.9272 10.231C85.0122 10.231 85.8221 10.3421 86.3568 10.5644C86.8916 10.7866 87.1589 11.151 87.1589 11.6575C87.1589 12.071 86.9962 12.4018 86.6707 12.6498C86.3452 12.8979 85.8105 13.0659 85.0665 13.1538ZM83.5088 13.0142C83.9789 13.0142 84.369 12.9935 84.679 12.9522C84.989 12.9109 85.237 12.8424 85.423 12.7468C85.609 12.6511 85.7394 12.5232 85.8143 12.363C85.8892 12.2028 85.9267 12.0038 85.9267 11.766C85.9267 11.5748 85.906 11.4068 85.8647 11.2621C85.8234 11.1174 85.7342 10.9972 85.5973 10.9016C85.4604 10.806 85.2628 10.7337 85.0045 10.6846C84.7461 10.6355 84.4026 10.6109 83.9737 10.6109H83.7451C83.665 10.6109 83.5863 10.6161 83.5088 10.6264V13.0142ZM83.5088 14.6965C83.5088 14.986 83.5126 15.2224 83.5204 15.4059C83.5281 15.5894 83.5372 15.7225 83.5475 15.8052C83.5578 15.8827 83.5798 15.9499 83.6134 16.0067C83.647 16.0636 83.6986 16.1127 83.7684 16.154C83.8381 16.1954 83.9298 16.2264 84.0435 16.2471C84.1572 16.2677 84.2992 16.2781 84.4697 16.2781C85.7097 16.2781 86.3297 15.7897 86.3297 14.8128C86.3297 14.5596 86.2896 14.3412 86.2096 14.1577C86.1295 13.9743 85.9964 13.8218 85.8104 13.7003C85.6245 13.5789 85.379 13.4884 85.0742 13.429C84.7694 13.3696 84.3948 13.3398 83.9505 13.3398H83.7335C83.6612 13.3398 83.5863 13.3424 83.5088 13.3476V14.6965ZM90.7083 13.0142C91.008 12.9987 91.2844 12.991 91.5376 12.991C91.7546 12.991 91.9858 13 92.2312 13.0181C92.4766 13.0362 92.7207 13.0711 92.9635 13.1228C93.2064 13.1744 93.4376 13.2442 93.6571 13.3321C93.8767 13.4199 94.0718 13.5349 94.2423 13.6771C94.4128 13.8192 94.5484 13.9898 94.6491 14.1887C94.7499 14.3877 94.8002 14.6216 94.8002 14.8904C94.8002 15.216 94.7253 15.4899 94.5755 15.7121C94.4257 15.9344 94.2061 16.114 93.9168 16.2509C93.6274 16.3879 93.271 16.4874 92.8473 16.5494C92.4236 16.6114 91.9354 16.6425 91.3826 16.6425H88.4919V16.2781H88.5926C88.7683 16.2781 88.913 16.2677 89.0266 16.2471C89.1403 16.2264 89.232 16.198 89.3017 16.1618C89.3715 16.1256 89.4244 16.0804 89.4606 16.0261C89.4968 15.9719 89.5226 15.9111 89.5381 15.8439C89.5536 15.7716 89.5665 15.6488 89.5769 15.4757C89.5872 15.3025 89.5924 15.0816 89.5924 14.8128V12.4715C89.5924 12.0994 89.5885 11.8035 89.5807 11.5839C89.573 11.3642 89.5639 11.2156 89.5536 11.1381C89.5278 10.983 89.4503 10.8629 89.3211 10.7776C89.192 10.6923 88.9698 10.6497 88.6546 10.6497H88.4919V10.293H91.8631V10.6497H91.6461C91.3154 10.6497 91.0855 10.6962 90.9563 10.7892C90.8272 10.8822 90.7523 11.0166 90.7316 11.1924C90.7161 11.3732 90.7083 11.7996 90.7083 12.4715V13.0142ZM90.7083 14.6965C90.7083 14.986 90.7161 15.2224 90.7316 15.4059C90.7471 15.5894 90.76 15.7225 90.7703 15.8052C90.7807 15.8827 90.8026 15.9499 90.8362 16.0067C90.8698 16.0636 90.9215 16.1127 90.9912 16.154C91.061 16.1954 91.1527 16.2264 91.2663 16.2471C91.38 16.2677 91.5221 16.2781 91.6926 16.2781C92.9325 16.2781 93.5525 15.7897 93.5525 14.8128C93.5525 14.5596 93.5125 14.3412 93.4324 14.1577C93.3523 13.9743 93.2193 13.8218 93.0333 13.7003C92.8473 13.5789 92.6019 13.4884 92.2971 13.429C91.9922 13.3696 91.6177 13.3398 91.1733 13.3398H90.9447C90.8646 13.3398 90.7858 13.3424 90.7083 13.3476V14.6965ZM97.8847 10.0372V14.464C97.8847 15.141 97.895 15.5674 97.9157 15.7431C97.9363 15.9189 98.0113 16.0533 98.1404 16.1463C98.2696 16.2393 98.4995 16.2858 98.8302 16.2858H98.9929V16.6425H95.5752V16.2858H95.8387C96.2056 16.2858 96.4445 16.2329 96.5556 16.1269C96.6667 16.021 96.7312 15.8943 96.7493 15.747C96.7674 15.5997 96.7765 15.172 96.7765 14.464V12.5413C96.7765 11.7971 96.7416 11.3422 96.6718 11.1768C96.6021 11.0115 96.5091 10.9081 96.3928 10.8667C96.2766 10.8254 96.0738 10.8047 95.7845 10.8047H95.5752V10.4481C96.4949 10.3551 97.2079 10.2181 97.7142 10.0372H97.8847ZM105.634 12.4405H101.209C101.189 12.7455 101.178 12.9729 101.178 13.1228C101.178 14.2391 101.353 15.0777 101.701 15.6385C102.05 16.1993 102.571 16.4796 103.263 16.4796C104.203 16.4796 104.87 16.0584 105.263 15.216H105.634C105.469 15.7432 105.141 16.1553 104.65 16.4525C104.159 16.7497 103.625 16.8983 103.046 16.8983C102.509 16.8983 102.001 16.7626 101.523 16.4913C101.045 16.2199 100.654 15.8362 100.349 15.34C100.044 14.8438 99.8919 14.2417 99.8919 13.5336C99.8919 12.531 100.186 11.6976 100.775 11.0334C101.364 10.3693 102.101 10.0372 102.984 10.0372C103.816 10.0372 104.459 10.2905 104.914 10.797C105.368 11.3035 105.609 11.8513 105.634 12.4405ZM104.278 12.1304C104.294 12.0115 104.302 11.9056 104.302 11.8126C104.302 11.3577 104.168 11.005 103.902 10.7543C103.636 10.5037 103.31 10.3783 102.922 10.3783C101.982 10.3783 101.421 10.9624 101.24 12.1304H104.278Z" fill="#00214B"/>
<path d="M52.7785 29.387H53.2552C52.764 31.0706 51.5361 31.9124 49.5715 31.9124C48.3074 31.9124 47.2438 31.4825 46.3807 30.6226C45.5175 29.7627 45.0859 28.6247 45.0859 27.2085C45.0859 25.7561 45.5518 24.5783 46.4836 23.6751C47.4154 22.7719 48.5169 22.3203 49.7881 22.3203C50.5538 22.3203 51.258 22.4883 51.9009 22.8243C52.5437 23.1603 52.8652 23.5703 52.8652 24.0545C52.8652 24.2351 52.8056 24.4049 52.6864 24.5639C52.5672 24.7228 52.3957 24.8023 52.1718 24.8023C51.695 24.8023 51.4025 24.5241 51.2942 23.9678C51.2075 23.5487 51.0738 23.256 50.8933 23.0898C50.7055 22.9237 50.3407 22.8406 49.799 22.8406C48.8311 22.8406 48.1034 23.1766 47.6158 23.8485C47.1283 24.5205 46.8845 25.5321 46.8845 26.8833C46.8845 28.2779 47.1463 29.3689 47.67 30.1565C48.1937 30.9442 48.9864 31.3379 50.0482 31.3379C51.4783 31.3379 52.3884 30.6876 52.7785 29.387ZM57.4374 29.0402L62.2479 24.2279C62.2479 24.0617 62.2317 23.9136 62.1992 23.7835C62.1667 23.6534 62.1053 23.5433 62.015 23.4529C61.9247 23.3626 61.7947 23.294 61.6249 23.247C61.4552 23.2 61.2331 23.1766 60.9586 23.1766H60.6552V22.678H65.3683V23.1766H65.1407C64.7001 23.1766 64.3895 23.2362 64.209 23.3554C64.0284 23.4746 63.92 23.6426 63.8839 23.8594C63.8695 23.9678 63.8568 24.1755 63.846 24.4826C63.8352 24.7897 63.8298 25.2034 63.8298 25.7236V28.5091C63.8298 29.0293 63.8352 29.443 63.846 29.7501C63.8568 30.0572 63.8695 30.2649 63.8839 30.3733C63.92 30.5901 64.0284 30.7581 64.209 30.8773C64.3895 30.9965 64.7001 31.0561 65.1407 31.0561H65.3683V31.5547H60.6552V31.0561H60.9586C61.4209 31.0561 61.7423 30.9911 61.9229 30.8611C62.1034 30.731 62.2082 30.5431 62.2371 30.2974C62.2587 30.0518 62.2696 29.4557 62.2696 28.5091V25.2684L57.4482 30.0915L57.4699 30.2974C57.4988 30.5431 57.6035 30.731 57.7841 30.8611C57.9646 30.9911 58.2861 31.0561 58.7483 31.0561H59.0517V31.5547H54.3387V31.0561H54.5662C55.0068 31.0561 55.3174 30.9965 55.498 30.8773C55.6785 30.7581 55.7869 30.5901 55.823 30.3733C55.8375 30.2649 55.8501 30.0572 55.8609 29.7501C55.8718 29.443 55.8772 29.0293 55.8772 28.5091V25.7236C55.8772 25.2034 55.8718 24.7897 55.8609 24.4826C55.8501 24.1755 55.8375 23.9678 55.823 23.8594C55.7869 23.6426 55.6785 23.4746 55.498 23.3554C55.3174 23.2362 55.0068 23.1766 54.5662 23.1766H54.3387V22.678H59.0517V23.1766H58.7483C58.2861 23.1766 57.9646 23.2416 57.7841 23.3716C57.6035 23.5017 57.4988 23.6896 57.4699 23.9352C57.4482 24.1881 57.4374 24.7843 57.4374 25.7236V29.0402ZM74.4151 29.387H74.8919C74.4007 31.0706 73.1728 31.9124 71.2081 31.9124C69.9441 31.9124 68.8805 31.4825 68.0173 30.6226C67.1542 29.7627 66.7226 28.6247 66.7226 27.2085C66.7226 25.7561 67.1885 24.5783 68.1202 23.6751C69.052 22.7719 70.1535 22.3203 71.4248 22.3203C72.1904 22.3203 72.8947 22.4883 73.5375 22.8243C74.1804 23.1603 74.5018 23.5703 74.5018 24.0545C74.5018 24.2351 74.4422 24.4049 74.323 24.5639C74.2039 24.7228 74.0323 24.8023 73.8084 24.8023C73.3317 24.8023 73.0391 24.5241 72.9308 23.9678C72.8441 23.5487 72.7105 23.256 72.5299 23.0898C72.3421 22.9237 71.9774 22.8406 71.4356 22.8406C70.4677 22.8406 69.74 23.1766 69.2525 23.8485C68.7649 24.5205 68.5211 25.5321 68.5211 26.8833C68.5211 28.2779 68.783 29.3689 69.3066 30.1565C69.8303 30.9442 70.623 31.3379 71.6848 31.3379C73.115 31.3379 74.0251 30.6876 74.4151 29.387ZM84.9788 22.678L85.0872 26.3414H84.708C84.6358 25.8645 84.5545 25.431 84.4642 25.0408C84.3739 24.6506 84.2349 24.3164 84.0471 24.0382C83.8593 23.76 83.6047 23.5469 83.2832 23.3987C82.9618 23.2506 82.5375 23.1766 82.0102 23.1766H81.2409V27.7287C81.2409 28.314 81.2463 28.7945 81.2572 29.1702C81.268 29.546 81.2806 29.8242 81.2951 30.0048C81.3168 30.1855 81.3493 30.3408 81.3926 30.4709C81.4359 30.6009 81.5064 30.7093 81.6039 30.796C81.7014 30.8827 81.8314 30.9478 81.9939 30.9911C82.1564 31.0345 82.3605 31.0561 82.6061 31.0561H82.9528V31.5547H77.9689V31.0561H78.3156C78.5612 31.0561 78.7634 31.0345 78.9223 30.9911C79.0812 30.9478 79.2094 30.8827 79.3069 30.796C79.4045 30.7093 79.4767 30.6009 79.5236 30.4709C79.5706 30.3408 79.6049 30.1855 79.6266 30.0048C79.641 29.8242 79.6537 29.546 79.6645 29.1702C79.6753 28.7945 79.6807 28.314 79.6807 27.7287V23.1766H78.9115C78.377 23.1766 77.9508 23.2506 77.633 23.3987C77.3152 23.5469 77.0624 23.76 76.8746 24.0382C76.6868 24.3164 76.5477 24.6506 76.4575 25.0408C76.3672 25.431 76.2859 25.8645 76.2137 26.3414H75.8345L75.9428 22.678H84.9788ZM94.3724 25.6802H88.1859C88.157 26.1066 88.1425 26.4245 88.1425 26.634C88.1425 28.1948 88.3863 29.3671 88.8739 30.1511C89.3614 30.9351 90.0891 31.3271 91.057 31.3271C92.3716 31.3271 93.3034 30.7382 93.8524 29.5604H94.3724C94.1413 30.2975 93.6826 30.8737 92.9964 31.2892C92.3102 31.7047 91.5627 31.9124 90.7537 31.9124C90.0025 31.9124 89.2928 31.7227 88.6247 31.3434C87.9565 30.964 87.4094 30.4275 86.9832 29.7338C86.5571 29.0402 86.344 28.1984 86.344 27.2085C86.344 25.8067 86.7557 24.6416 87.5791 23.7131C88.4026 22.7846 89.4319 22.3203 90.667 22.3203C91.8299 22.3203 92.7292 22.6744 93.3648 23.3825C94.0004 24.0906 94.3363 24.8565 94.3724 25.6802ZM92.4764 25.2467C92.498 25.0805 92.5089 24.9324 92.5089 24.8023C92.5089 24.1665 92.3229 23.6733 91.9509 23.3229C91.5789 22.9724 91.1221 22.7972 90.5803 22.7972C89.2657 22.7972 88.482 23.6137 88.2292 25.2467H92.4764ZM101.881 29.1269L104.806 22.678H107.97V23.1766H107.786C107.511 23.1766 107.289 23.191 107.119 23.2199C106.95 23.2488 106.814 23.2958 106.713 23.3608C106.612 23.4258 106.538 23.5125 106.491 23.6209C106.444 23.7293 106.406 23.863 106.377 24.022C106.348 24.1881 106.327 24.4627 106.312 24.8457C106.298 25.2286 106.29 25.7272 106.29 26.3414V27.7287C106.29 28.3574 106.299 28.883 106.318 29.3057C106.336 29.7284 106.39 30.0698 106.48 30.33C106.57 30.5901 106.711 30.7761 106.903 30.8881C107.094 31.0001 107.359 31.0561 107.699 31.0561H107.97V31.5547H103.138V31.0561H103.528C103.802 31.0561 104.019 31.0001 104.178 30.8881C104.337 30.7761 104.456 30.5901 104.535 30.33C104.615 30.0698 104.663 29.7266 104.682 29.3003C104.7 28.874 104.709 28.3501 104.709 27.7287V24.1954L101.426 31.5547H101.047L97.7311 24.1954V26.9809C97.7311 27.5734 97.7384 28.0701 97.7528 28.4712C97.7673 28.8722 97.7889 29.1775 97.8178 29.387C97.8467 29.6038 97.8919 29.8079 97.9533 29.9994C98.0147 30.1909 98.1013 30.3607 98.2133 30.5088C98.3252 30.6569 98.4697 30.7798 98.6467 30.8773C98.8236 30.9749 99.0385 31.0345 99.2913 31.0561V31.5547H95.7809V31.0561C95.9759 31.0417 96.1583 30.9839 96.3281 30.8827C96.4978 30.7816 96.6459 30.6533 96.7723 30.498C96.8987 30.3426 97.0034 30.171 97.0865 29.9831C97.1696 29.7953 97.2255 29.6038 97.2544 29.4087C97.3194 28.9679 97.3519 28.137 97.3519 26.9158V26.3414C97.3519 25.7561 97.3465 25.2738 97.3357 24.8945C97.3248 24.5151 97.305 24.2423 97.2761 24.0761C97.2472 23.91 97.2111 23.7691 97.1677 23.6534C97.1244 23.5378 97.054 23.4457 96.9565 23.3771C96.859 23.3084 96.7253 23.2578 96.5556 23.2253C96.3858 23.1928 96.1565 23.1766 95.8676 23.1766H95.7809V22.678H98.9229L101.881 29.1269ZM112.195 26.4823C112.614 26.4606 113.001 26.4498 113.355 26.4498C113.658 26.4498 113.981 26.4624 114.324 26.4877C114.667 26.513 115.009 26.5618 115.348 26.634C115.688 26.7063 116.011 26.8038 116.318 26.9267C116.625 27.0495 116.898 27.2103 117.136 27.409C117.374 27.6077 117.564 27.8461 117.705 28.1243C117.846 28.4025 117.916 28.7295 117.916 29.1052C117.916 29.5604 117.811 29.9434 117.602 30.2541C117.392 30.5648 117.085 30.8159 116.681 31.0074C116.276 31.1989 115.778 31.3379 115.186 31.4247C114.593 31.5114 113.911 31.5547 113.138 31.5547H109.097V31.0453H109.237C109.483 31.0453 109.685 31.0309 109.844 31.002C110.003 30.9731 110.131 30.9333 110.229 30.8827C110.326 30.8321 110.4 30.7689 110.451 30.6931C110.502 30.6172 110.538 30.5323 110.559 30.4383C110.581 30.3372 110.599 30.1656 110.613 29.9235C110.628 29.6815 110.635 29.3726 110.635 28.9968V25.7236C110.635 25.2034 110.63 24.7897 110.619 24.4826C110.608 24.1755 110.595 23.9678 110.581 23.8594C110.545 23.6426 110.436 23.4746 110.256 23.3554C110.075 23.2362 109.765 23.1766 109.324 23.1766H109.097V22.678H113.81V23.1766H113.506C113.044 23.1766 112.723 23.2416 112.542 23.3716C112.361 23.5017 112.257 23.6896 112.228 23.9352C112.206 24.1881 112.195 24.7843 112.195 25.7236V26.4823ZM112.195 28.8343C112.195 29.2389 112.206 29.5695 112.228 29.826C112.249 30.0825 112.268 30.2685 112.282 30.3842C112.296 30.4925 112.327 30.5865 112.374 30.666C112.421 30.7454 112.493 30.8141 112.591 30.8719C112.688 30.9297 112.816 30.9731 112.975 31.002C113.134 31.0309 113.333 31.0453 113.571 31.0453C115.305 31.0453 116.172 30.3625 116.172 28.9968C116.172 28.6428 116.116 28.3375 116.004 28.081C115.892 27.8245 115.706 27.6113 115.446 27.4415C115.186 27.2717 114.843 27.1453 114.416 27.0622C113.99 26.9791 113.467 26.9375 112.845 26.9375H112.526C112.414 26.9375 112.304 26.9411 112.195 26.9484V28.8343ZM122.228 22.3203V28.5091C122.228 29.4557 122.243 30.0518 122.271 30.2974C122.3 30.5431 122.405 30.731 122.586 30.8611C122.766 30.9911 123.088 31.0561 123.55 31.0561H123.777V31.5547H118.999V31.0561H119.368C119.881 31.0561 120.215 30.9821 120.37 30.834C120.525 30.6858 120.616 30.5088 120.641 30.3029C120.666 30.0969 120.679 29.499 120.679 28.5091V25.8211C120.679 24.7806 120.63 24.1448 120.533 23.9136C120.435 23.6823 120.305 23.5378 120.142 23.48C119.98 23.4222 119.696 23.3933 119.292 23.3933H118.999V22.8948C120.285 22.7647 121.282 22.5732 121.99 22.3203H122.228Z" fill="#333333"/>
<path d="M52.7785 29.387H53.2552C52.764 31.0706 51.5361 31.9124 49.5715 31.9124C48.3074 31.9124 47.2438 31.4825 46.3807 30.6226C45.5175 29.7627 45.0859 28.6247 45.0859 27.2085C45.0859 25.7561 45.5518 24.5783 46.4836 23.6751C47.4154 22.7719 48.5169 22.3203 49.7881 22.3203C50.5538 22.3203 51.258 22.4883 51.9009 22.8243C52.5437 23.1603 52.8652 23.5703 52.8652 24.0545C52.8652 24.2351 52.8056 24.4049 52.6864 24.5639C52.5672 24.7228 52.3957 24.8023 52.1718 24.8023C51.695 24.8023 51.4025 24.5241 51.2942 23.9678C51.2075 23.5487 51.0738 23.256 50.8933 23.0898C50.7055 22.9237 50.3407 22.8406 49.799 22.8406C48.8311 22.8406 48.1034 23.1766 47.6158 23.8485C47.1283 24.5205 46.8845 25.5321 46.8845 26.8833C46.8845 28.2779 47.1463 29.3689 47.67 30.1565C48.1937 30.9442 48.9864 31.3379 50.0482 31.3379C51.4783 31.3379 52.3884 30.6876 52.7785 29.387ZM57.4374 29.0402L62.2479 24.2279C62.2479 24.0617 62.2317 23.9136 62.1992 23.7835C62.1667 23.6534 62.1053 23.5433 62.015 23.4529C61.9247 23.3626 61.7947 23.294 61.6249 23.247C61.4552 23.2 61.2331 23.1766 60.9586 23.1766H60.6552V22.678H65.3683V23.1766H65.1407C64.7001 23.1766 64.3895 23.2362 64.209 23.3554C64.0284 23.4746 63.92 23.6426 63.8839 23.8594C63.8695 23.9678 63.8568 24.1755 63.846 24.4826C63.8352 24.7897 63.8298 25.2034 63.8298 25.7236V28.5091C63.8298 29.0293 63.8352 29.443 63.846 29.7501C63.8568 30.0572 63.8695 30.2649 63.8839 30.3733C63.92 30.5901 64.0284 30.7581 64.209 30.8773C64.3895 30.9965 64.7001 31.0561 65.1407 31.0561H65.3683V31.5547H60.6552V31.0561H60.9586C61.4209 31.0561 61.7423 30.9911 61.9229 30.8611C62.1034 30.731 62.2082 30.5431 62.2371 30.2974C62.2587 30.0518 62.2696 29.4557 62.2696 28.5091V25.2684L57.4482 30.0915L57.4699 30.2974C57.4988 30.5431 57.6035 30.731 57.7841 30.8611C57.9646 30.9911 58.2861 31.0561 58.7483 31.0561H59.0517V31.5547H54.3387V31.0561H54.5662C55.0068 31.0561 55.3174 30.9965 55.498 30.8773C55.6785 30.7581 55.7869 30.5901 55.823 30.3733C55.8375 30.2649 55.8501 30.0572 55.8609 29.7501C55.8718 29.443 55.8772 29.0293 55.8772 28.5091V25.7236C55.8772 25.2034 55.8718 24.7897 55.8609 24.4826C55.8501 24.1755 55.8375 23.9678 55.823 23.8594C55.7869 23.6426 55.6785 23.4746 55.498 23.3554C55.3174 23.2362 55.0068 23.1766 54.5662 23.1766H54.3387V22.678H59.0517V23.1766H58.7483C58.2861 23.1766 57.9646 23.2416 57.7841 23.3716C57.6035 23.5017 57.4988 23.6896 57.4699 23.9352C57.4482 24.1881 57.4374 24.7843 57.4374 25.7236V29.0402ZM74.4151 29.387H74.8919C74.4007 31.0706 73.1728 31.9124 71.2081 31.9124C69.9441 31.9124 68.8805 31.4825 68.0173 30.6226C67.1542 29.7627 66.7226 28.6247 66.7226 27.2085C66.7226 25.7561 67.1885 24.5783 68.1202 23.6751C69.052 22.7719 70.1535 22.3203 71.4248 22.3203C72.1904 22.3203 72.8947 22.4883 73.5375 22.8243C74.1804 23.1603 74.5018 23.5703 74.5018 24.0545C74.5018 24.2351 74.4422 24.4049 74.323 24.5639C74.2039 24.7228 74.0323 24.8023 73.8084 24.8023C73.3317 24.8023 73.0391 24.5241 72.9308 23.9678C72.8441 23.5487 72.7105 23.256 72.5299 23.0898C72.3421 22.9237 71.9774 22.8406 71.4356 22.8406C70.4677 22.8406 69.74 23.1766 69.2525 23.8485C68.7649 24.5205 68.5211 25.5321 68.5211 26.8833C68.5211 28.2779 68.783 29.3689 69.3066 30.1565C69.8303 30.9442 70.623 31.3379 71.6848 31.3379C73.115 31.3379 74.0251 30.6876 74.4151 29.387ZM84.9788 22.678L85.0872 26.3414H84.708C84.6358 25.8645 84.5545 25.431 84.4642 25.0408C84.3739 24.6506 84.2349 24.3164 84.0471 24.0382C83.8593 23.76 83.6047 23.5469 83.2832 23.3987C82.9618 23.2506 82.5375 23.1766 82.0102 23.1766H81.2409V27.7287C81.2409 28.314 81.2463 28.7945 81.2572 29.1702C81.268 29.546 81.2806 29.8242 81.2951 30.0048C81.3168 30.1855 81.3493 30.3408 81.3926 30.4709C81.4359 30.6009 81.5064 30.7093 81.6039 30.796C81.7014 30.8827 81.8314 30.9478 81.9939 30.9911C82.1564 31.0345 82.3605 31.0561 82.6061 31.0561H82.9528V31.5547H77.9689V31.0561H78.3156C78.5612 31.0561 78.7634 31.0345 78.9223 30.9911C79.0812 30.9478 79.2094 30.8827 79.3069 30.796C79.4045 30.7093 79.4767 30.6009 79.5236 30.4709C79.5706 30.3408 79.6049 30.1855 79.6266 30.0048C79.641 29.8242 79.6537 29.546 79.6645 29.1702C79.6753 28.7945 79.6807 28.314 79.6807 27.7287V23.1766H78.9115C78.377 23.1766 77.9508 23.2506 77.633 23.3987C77.3152 23.5469 77.0624 23.76 76.8746 24.0382C76.6868 24.3164 76.5477 24.6506 76.4575 25.0408C76.3672 25.431 76.2859 25.8645 76.2137 26.3414H75.8345L75.9428 22.678H84.9788ZM94.3724 25.6802H88.1859C88.157 26.1066 88.1425 26.4245 88.1425 26.634C88.1425 28.1948 88.3863 29.3671 88.8739 30.1511C89.3614 30.9351 90.0891 31.3271 91.057 31.3271C92.3716 31.3271 93.3034 30.7382 93.8524 29.5604H94.3724C94.1413 30.2975 93.6826 30.8737 92.9964 31.2892C92.3102 31.7047 91.5627 31.9124 90.7537 31.9124C90.0025 31.9124 89.2928 31.7227 88.6247 31.3434C87.9565 30.964 87.4094 30.4275 86.9832 29.7338C86.5571 29.0402 86.344 28.1984 86.344 27.2085C86.344 25.8067 86.7557 24.6416 87.5791 23.7131C88.4026 22.7846 89.4319 22.3203 90.667 22.3203C91.8299 22.3203 92.7292 22.6744 93.3648 23.3825C94.0004 24.0906 94.3363 24.8565 94.3724 25.6802ZM92.4764 25.2467C92.498 25.0805 92.5089 24.9324 92.5089 24.8023C92.5089 24.1665 92.3229 23.6733 91.9509 23.3229C91.5789 22.9724 91.1221 22.7972 90.5803 22.7972C89.2657 22.7972 88.482 23.6137 88.2292 25.2467H92.4764ZM101.881 29.1269L104.806 22.678H107.97V23.1766H107.786C107.511 23.1766 107.289 23.191 107.119 23.2199C106.95 23.2488 106.814 23.2958 106.713 23.3608C106.612 23.4258 106.538 23.5125 106.491 23.6209C106.444 23.7293 106.406 23.863 106.377 24.022C106.348 24.1881 106.327 24.4627 106.312 24.8457C106.298 25.2286 106.29 25.7272 106.29 26.3414V27.7287C106.29 28.3574 106.299 28.883 106.318 29.3057C106.336 29.7284 106.39 30.0698 106.48 30.33C106.57 30.5901 106.711 30.7761 106.903 30.8881C107.094 31.0001 107.359 31.0561 107.699 31.0561H107.97V31.5547H103.138V31.0561H103.528C103.802 31.0561 104.019 31.0001 104.178 30.8881C104.337 30.7761 104.456 30.5901 104.535 30.33C104.615 30.0698 104.663 29.7266 104.682 29.3003C104.7 28.874 104.709 28.3501 104.709 27.7287V24.1954L101.426 31.5547H101.047L97.7311 24.1954V26.9809C97.7311 27.5734 97.7384 28.0701 97.7528 28.4712C97.7673 28.8722 97.7889 29.1775 97.8178 29.387C97.8467 29.6038 97.8919 29.8079 97.9533 29.9994C98.0147 30.1909 98.1013 30.3607 98.2133 30.5088C98.3252 30.6569 98.4697 30.7798 98.6467 30.8773C98.8236 30.9749 99.0385 31.0345 99.2913 31.0561V31.5547H95.7809V31.0561C95.9759 31.0417 96.1583 30.9839 96.3281 30.8827C96.4978 30.7816 96.6459 30.6533 96.7723 30.498C96.8987 30.3426 97.0034 30.171 97.0865 29.9831C97.1696 29.7953 97.2255 29.6038 97.2544 29.4087C97.3194 28.9679 97.3519 28.137 97.3519 26.9158V26.3414C97.3519 25.7561 97.3465 25.2738 97.3357 24.8945C97.3248 24.5151 97.305 24.2423 97.2761 24.0761C97.2472 23.91 97.2111 23.7691 97.1677 23.6534C97.1244 23.5378 97.054 23.4457 96.9565 23.3771C96.859 23.3084 96.7253 23.2578 96.5556 23.2253C96.3858 23.1928 96.1565 23.1766 95.8676 23.1766H95.7809V22.678H98.9229L101.881 29.1269ZM112.195 26.4823C112.614 26.4606 113.001 26.4498 113.355 26.4498C113.658 26.4498 113.981 26.4624 114.324 26.4877C114.667 26.513 115.009 26.5618 115.348 26.634C115.688 26.7063 116.011 26.8038 116.318 26.9267C116.625 27.0495 116.898 27.2103 117.136 27.409C117.374 27.6077 117.564 27.8461 117.705 28.1243C117.846 28.4025 117.916 28.7295 117.916 29.1052C117.916 29.5604 117.811 29.9434 117.602 30.2541C117.392 30.5648 117.085 30.8159 116.681 31.0074C116.276 31.1989 115.778 31.3379 115.186 31.4247C114.593 31.5114 113.911 31.5547 113.138 31.5547H109.097V31.0453H109.237C109.483 31.0453 109.685 31.0309 109.844 31.002C110.003 30.9731 110.131 30.9333 110.229 30.8827C110.326 30.8321 110.4 30.7689 110.451 30.6931C110.502 30.6172 110.538 30.5323 110.559 30.4383C110.581 30.3372 110.599 30.1656 110.613 29.9235C110.628 29.6815 110.635 29.3726 110.635 28.9968V25.7236C110.635 25.2034 110.63 24.7897 110.619 24.4826C110.608 24.1755 110.595 23.9678 110.581 23.8594C110.545 23.6426 110.436 23.4746 110.256 23.3554C110.075 23.2362 109.765 23.1766 109.324 23.1766H109.097V22.678H113.81V23.1766H113.506C113.044 23.1766 112.723 23.2416 112.542 23.3716C112.361 23.5017 112.257 23.6896 112.228 23.9352C112.206 24.1881 112.195 24.7843 112.195 25.7236V26.4823ZM112.195 28.8343C112.195 29.2389 112.206 29.5695 112.228 29.826C112.249 30.0825 112.268 30.2685 112.282 30.3842C112.296 30.4925 112.327 30.5865 112.374 30.666C112.421 30.7454 112.493 30.8141 112.591 30.8719C112.688 30.9297 112.816 30.9731 112.975 31.002C113.134 31.0309 113.333 31.0453 113.571 31.0453C115.305 31.0453 116.172 30.3625 116.172 28.9968C116.172 28.6428 116.116 28.3375 116.004 28.081C115.892 27.8245 115.706 27.6113 115.446 27.4415C115.186 27.2717 114.843 27.1453 114.416 27.0622C113.99 26.9791 113.467 26.9375 112.845 26.9375H112.526C112.414 26.9375 112.304 26.9411 112.195 26.9484V28.8343ZM122.228 22.3203V28.5091C122.228 29.4557 122.243 30.0518 122.271 30.2974C122.3 30.5431 122.405 30.731 122.586 30.8611C122.766 30.9911 123.088 31.0561 123.55 31.0561H123.777V31.5547H118.999V31.0561H119.368C119.881 31.0561 120.215 30.9821 120.37 30.834C120.525 30.6858 120.616 30.5088 120.641 30.3029C120.666 30.0969 120.679 29.499 120.679 28.5091V25.8211C120.679 24.7806 120.63 24.1448 120.533 23.9136C120.435 23.6823 120.305 23.5378 120.142 23.48C119.98 23.4222 119.696 23.3933 119.292 23.3933H118.999V22.8948C120.285 22.7647 121.282 22.5732 121.99 22.3203H122.228Z" fill="#00214B"/>
<path d="M32.0254 27.6309H9.44727V28.0803H32.0254V27.6309Z" stroke="#FEFEFE" stroke-width="1.0583"/>
<path fill-rule="evenodd" clip-rule="evenodd" d="M21.3456 8.23277L21.3901 8.27079H21.5235C21.2694 8.59555 20.7232 8.32068 20.7232 8.87964C21.0527 8.87964 21.0542 8.70809 21.3864 8.84409L21.5679 8.95573C21.5217 9.10373 21.5242 9.05119 21.3456 9.18405L20.99 9.41236C20.8757 9.34175 20.9412 9.23488 20.7094 9.15546C20.4236 9.05758 20.6283 9.29115 20.3263 9.31722C20.1741 9.33034 20.0757 9.28355 20.0119 9.4885L19.388 9.33326C19.2473 9.29969 19.3443 9.26351 19.1671 9.33627V9.18405C19.0104 9.15281 19.0211 9.14602 18.8114 9.14602C18.7666 9.05308 18.7814 9.11528 18.8114 8.9938L18.175 8.8534C18.1639 8.85056 18.1532 8.84611 18.1423 8.84301C18.1315 8.83996 18.1207 8.83528 18.1099 8.83214L17.9427 8.78567C17.8601 8.75313 17.8809 8.74746 17.8653 8.73124C17.794 8.65762 17.9046 8.68944 17.7889 8.65133C17.8251 8.28755 18.0973 8.60989 18.3225 8.34692C18.5361 8.48095 18.2798 8.48472 18.5892 8.42301L18.4482 8.27668C18.6557 8.25209 18.5673 8.32773 18.5892 8.15663C18.4344 8.06796 18.2621 8.06036 18.0112 8.04247C17.9633 7.94324 18.0348 7.85991 17.8064 7.83232C17.1962 7.75861 17.3685 7.59874 16.9004 7.58522C16.5429 7.57492 16.4806 7.63717 16.4106 7.47169C16.0638 7.47169 16.2746 7.49614 16.0732 7.56544C15.9031 7.62396 15.7868 7.57465 15.6654 7.53906C15.5102 7.49353 15.3173 7.41268 15.1731 7.41011C15.0576 7.408 15.1822 7.45358 14.9737 7.40508C14.897 7.38724 15.0058 7.30261 14.6438 7.40274C14.2421 7.51385 14.0974 7.48099 13.9541 7.53627C13.7952 7.59758 13.8226 7.64683 13.6097 7.66198C13.7423 7.83142 13.7088 7.75744 13.9955 7.78859C14.6667 7.86158 14.4015 7.70292 14.6718 7.77838C14.7385 7.79699 14.791 7.82787 14.8532 7.84895C15.2278 7.97582 15.2791 7.85663 15.655 7.96719C15.7033 7.98144 15.6063 7.97385 15.7557 7.99726C16.2714 8.07802 15.7408 7.84495 16.3129 8.16589C16.6445 8.35187 16.6221 8.05034 16.8108 8.27079C15.5546 8.27079 16.1411 8.45101 15.6275 8.33937C15.4768 8.30661 15.4461 8.35587 15.2103 8.30886C15.2056 8.49097 15.1263 8.46454 15.1259 8.4649L15.0324 8.4991C14.8565 8.44459 15.0403 8.38495 14.5878 8.38495C14.602 8.27434 14.6689 8.26769 14.6323 8.23277C14.5824 8.18522 14.4877 8.24719 14.3233 8.11672C14.2096 8.02656 14.4377 8.11349 14.2322 8.04247C14.2322 8.19753 14.2523 8.37259 14.2766 8.42301C14.0526 8.40706 13.9338 8.40095 13.832 8.27079C14.0754 8.27079 14.0369 8.29259 14.1432 8.15663C14.1103 8.0511 14.0817 8.06513 14.0102 8.00418C13.9795 7.97807 13.8946 7.89933 13.8489 7.87578C13.7358 7.81753 13.4876 7.79169 13.3213 7.83263C13.0331 7.9036 13.2567 7.85933 13.1238 7.93106C13.06 7.96549 13.0796 7.94931 13.0371 7.97101C12.9533 8.01385 13.0006 7.97758 12.933 8.03506L12.8229 8.19533C12.7992 8.29488 12.8494 8.2236 12.8095 8.38495C13.0029 8.38863 13.052 8.42301 13.2985 8.42301C13.3981 8.60059 13.2746 8.5209 13.4319 8.57524C13.2063 8.74306 13.2301 8.75452 13.0762 8.76549C13.0517 8.57385 13.131 8.68045 12.9575 8.65789C12.9484 8.65672 12.9342 8.65879 12.9246 8.65847C12.9147 8.65816 12.9011 8.66036 12.891 8.66059C12.881 8.66077 12.8678 8.66243 12.8577 8.66288C12.783 8.6662 12.8183 8.66292 12.7264 8.66967C12.3619 8.69641 12.5139 8.6334 12.2315 8.61326C12.0894 8.70238 12.2058 8.66499 12.0647 8.73686L11.3868 8.95573C11.4542 9.1151 11.4776 8.95501 11.5418 9.16144C11.5465 9.17663 11.5122 9.16324 11.5646 9.26018C11.7971 9.30652 11.6405 9.27695 11.8758 9.26018C12.0967 9.65416 12.1618 9.36854 12.4538 9.4885C12.7106 9.62791 12.9621 9.40472 13.1807 9.38859C13.3115 9.37892 13.3036 9.39587 13.5619 9.45308C13.7826 9.50193 13.7005 9.52337 13.7876 9.67874C14.6616 9.67874 14.1539 9.79915 14.5878 9.60265C14.5438 9.74373 14.5429 9.65182 14.4989 9.7929C14.7431 9.71726 14.3181 9.876 14.5843 9.74773C14.737 9.67411 14.6335 9.7165 14.8218 9.72468C14.8279 9.72495 14.8426 9.72459 14.8481 9.72454C15.0443 9.72324 14.951 9.67614 15.0193 9.59043C15.1046 9.48337 15.1251 9.46899 15.2914 9.45789C15.5037 9.44378 15.4909 9.43937 15.6104 9.4885C15.5253 9.76131 15.3624 9.47483 15.1658 9.7929C15.3826 9.91713 15.1864 9.80504 15.4942 9.85182C15.6168 9.87043 15.8125 9.9422 15.8848 9.97663C16.1116 10.0847 15.7629 9.8902 15.9399 10.0056L16.1596 10.1625C16.3299 10.2552 16.2122 10.2009 16.2773 10.4398H16.3662C16.3736 10.1561 16.3499 10.3797 16.427 10.3015C16.5762 10.1501 16.4461 10.4191 16.544 10.2115H16.6329C16.6329 10.6324 16.9781 10.4463 17.2634 10.5471C17.3464 10.5764 17.3125 10.5568 17.3682 10.6096C17.429 10.6671 17.3996 10.6266 17.4332 10.7062H17.5666C17.5977 10.5949 17.5608 10.6514 17.6555 10.592C18.2323 10.8532 18.0886 10.6294 18.5834 10.7489C18.9029 10.8261 19.2534 10.7834 19.3332 10.7965C19.4853 10.8216 19.3697 10.8399 19.5425 10.8797C19.6603 10.9067 19.8297 10.8234 20.2875 10.845C20.3719 10.8489 21.0525 10.7744 21.3472 10.9915L21.3901 11.0486C22.1363 11.0486 22.0177 10.9187 22.5848 10.8179C23.1142 10.7239 23.1357 10.4658 23.4095 10.5088L23.4616 10.5236C23.7046 10.5624 23.6558 10.4118 23.8519 10.3051C23.8562 10.3027 23.8677 10.2975 23.8721 10.2952L24.0552 10.2276C24.287 10.1591 24.0947 10.1245 24.37 10.0222C24.8673 9.83722 24.6453 9.85155 24.9512 9.94171C25.3288 10.053 26.1257 9.66971 26.8702 9.82099C27.3359 9.9156 27.4377 10.112 27.6588 10.0212L27.5699 9.94513V9.71681C27.5918 9.70814 27.7012 9.68638 27.703 9.68544L27.7563 9.64409C27.8348 9.57928 28.3281 9.36746 28.2035 9.06274C28.111 8.83681 28.0368 9.01749 27.97 8.80355C28.3686 8.80355 28.2955 8.61295 28.3072 8.22791C28.3095 8.14809 28.2812 8.08683 28.2812 7.96638C27.8845 7.96638 28.038 7.93326 27.9121 7.71155C27.8382 7.58144 27.8886 7.7525 27.8366 7.58585C27.9517 7.41888 28.0207 7.532 28.1924 7.43367C28.1216 7.26647 28.1981 7.43416 28.1016 7.32108C28.003 7.20562 28.0399 7.36607 28.0145 7.16728C27.8186 7.17101 27.8066 7.20535 27.5699 7.20535C27.5271 7.06814 27.5658 7.10355 27.3921 7.09119C27.4006 7.42005 27.4456 7.08072 27.481 7.35753C27.185 7.29852 27.2507 7.21474 26.903 7.35753L26.9828 7.44149C26.9891 7.44674 26.9993 7.45443 27.0061 7.45973L27.1705 7.59394C27.3679 7.87946 27.0066 7.70638 26.9544 7.67416L26.8225 7.58086C26.7815 7.56441 26.7878 7.57304 26.731 7.56342C26.6475 7.54931 26.64 7.63915 26.5973 7.49973C26.5611 7.38144 26.6253 7.36445 26.6807 7.31951C26.5053 7.332 26.4724 7.35753 26.2361 7.35753V7.66198C26.0449 7.6756 26.1239 7.6982 25.8914 7.69011L25.6553 7.70095C25.6511 7.70126 25.6388 7.7009 25.6348 7.70108L25.0802 7.73807C25.1364 7.61888 25.1759 7.73789 25.2131 7.57025L25.2358 7.49474C25.2883 7.33542 25.2332 7.62836 25.258 7.43367C25.1459 7.53483 25.04 7.51254 24.9024 7.43367V7.54782C24.7249 7.54441 24.7368 7.4969 24.6418 7.39029L24.5991 7.35074C24.5934 7.34602 24.5785 7.33807 24.5736 7.33447C24.5687 7.33083 24.5554 7.32472 24.5467 7.31951C24.9394 7.31951 24.8962 7.34562 24.994 7.15668C24.9944 7.15587 25.0339 7.09349 25.0357 7.09119C25.1619 7.11632 25.168 7.14656 25.2525 7.14328C25.2543 7.14319 25.3491 7.11847 25.3666 7.11227C25.5049 7.06324 25.3732 7.09668 25.4944 7.06625C25.612 7.03677 25.9488 6.9791 26.0583 6.97704L26.1997 7.12234C26.289 7.17969 26.2946 7.18153 26.4139 7.20535C26.4086 6.9974 26.324 7.0067 26.1513 6.93542C26.085 6.908 26.0995 6.91335 26.0665 6.89389C25.9267 6.81155 25.9092 6.78674 25.7026 6.78674C25.7026 6.5711 25.7413 6.64059 25.6137 6.5965V6.52041C25.8429 6.50409 25.7132 6.47047 25.8532 6.4458C25.8578 6.44499 25.871 6.44549 25.8752 6.44495L25.9325 6.44504C25.9854 6.41461 25.9623 6.60176 25.9693 6.33011C26.2044 6.43659 26.4285 6.30638 26.4024 6.52535C26.3899 6.63011 26.3968 6.5809 26.3251 6.67259C26.4167 6.71411 26.4304 6.7254 26.5473 6.74872C26.5015 6.82292 26.422 6.87645 26.5264 6.924C26.6359 6.97394 26.97 6.84508 27.0657 6.81187C27.0756 6.80841 27.0877 6.80454 27.0968 6.8005L27.2587 6.63456C27.1832 6.51254 27.0506 6.42427 27.0358 6.33061C27.0295 6.29074 27.0364 6.18638 27.0364 6.13987C26.7638 6.13987 26.7044 6.07964 26.6807 5.83546C26.5281 5.89811 26.433 5.83672 26.2521 5.87955C26.2456 5.88108 26.2321 5.88265 26.2256 5.8845C26.0949 5.92225 26.2086 5.82598 26.1027 5.94962C26.2965 6.02917 26.2501 5.92427 26.3695 6.06378C26.2896 6.32 26.1138 6.13987 25.836 6.13987L25.8463 6.22679C25.8315 6.30216 25.7049 6.2871 25.6129 6.28611C25.4915 6.28481 25.4946 6.27461 25.3914 6.25402C25.3914 6.06108 25.347 6.0467 25.347 5.83546C25.4348 5.83546 25.5123 5.84346 25.5885 5.84607C25.6903 5.84962 25.681 5.83843 25.836 5.83546C25.7521 5.73744 25.7278 5.73101 25.391 5.75762C25.2798 5.76643 25.264 5.7645 25.1872 5.81295L25.0576 5.93029C24.9884 5.99002 24.8634 6.08522 24.8392 6.17915C24.8198 6.25416 24.8699 6.18733 24.8134 6.32976C24.7988 6.36683 24.7482 6.44405 24.7245 6.48234C24.8236 6.52724 24.8584 6.54585 24.9468 6.5965C24.9005 6.67919 24.9261 6.66216 24.8919 6.74337C24.887 6.75483 24.8705 6.78791 24.8659 6.79874C24.8331 6.87825 24.8488 6.77047 24.8372 6.87245C24.8231 6.99668 24.9024 6.91187 24.9024 7.16728C24.2962 7.28814 24.7315 7.24845 24.3244 7.16728C24.1764 7.25214 24.0059 7.3396 23.9243 7.47169C24.0126 7.508 24.0832 7.52629 24.191 7.54782C24.1396 7.71272 24.1615 7.6494 24.0118 7.69883C23.8485 7.75268 23.8574 7.67955 23.8353 7.85223C23.5264 7.71232 23.6148 7.90288 23.3908 7.81416C23.2309 7.73349 23.3264 7.70863 23.2196 7.61816C23.1658 7.5725 23.2241 7.66481 23.124 7.54782C23.2668 7.46593 23.222 7.45295 23.4113 7.3751C23.577 7.30688 23.5932 7.33362 23.613 7.12922C23.4626 7.13996 23.5228 7.15358 23.4503 7.13533C23.3558 7.1116 23.4042 7.08486 23.3018 7.05313C23.2454 7.26032 23.124 7.27609 23.124 7.50976C22.8455 7.50976 22.6239 7.48967 22.3661 7.54602C22.0062 7.62477 22.019 7.66198 21.6124 7.66198C21.5917 7.87452 21.5513 7.74229 21.6124 7.96638C21.3748 7.97092 21.3636 8.04728 21.3456 8.23277Z" fill="white"/>
<path fill-rule="evenodd" clip-rule="evenodd" d="M18.2599 7.39453V7.54671C18.3385 7.5624 18.3942 7.56891 18.4778 7.58842C18.6476 7.62806 18.5459 7.62464 18.7045 7.66087C18.6886 7.82451 18.7107 7.72945 18.6155 7.85116H18.8823C18.9389 7.95215 18.9229 7.89188 18.9267 8.04141C19.1501 8.04141 19.1574 8.04563 19.3268 8.07948C19.3517 7.82379 19.724 7.75624 19.3046 7.60383C19.1757 7.557 19.0985 7.53098 18.9656 7.51345L18.2599 7.39453Z" fill="#EDEDED"/>
<path fill-rule="evenodd" clip-rule="evenodd" d="M27.4177 5.83476C27.2644 5.63876 27.3645 5.64905 27.151 5.60645C27.1273 5.84919 27.0315 5.83476 27.4177 5.83476Z" fill="#EDEDED"/>
<path fill-rule="evenodd" clip-rule="evenodd" d="M23.6837 5.41586C23.8401 5.52773 23.9229 5.37492 23.9505 5.33977C23.8259 5.25069 23.7375 5.33065 23.6837 5.41586Z" fill="#EDEDED"/>
<path fill-rule="evenodd" clip-rule="evenodd" d="M22.9278 5.56824C23.009 5.60262 22.9834 5.59759 23.1056 5.60626C23.0491 5.50527 23.0651 5.56554 23.0612 5.41602H22.9723C22.9634 5.50437 22.9626 5.51332 22.9278 5.56824Z" fill="#EDEDED"/>
<path fill-rule="evenodd" clip-rule="evenodd" d="M23.2833 5.79674H23.4167C23.4326 5.6331 23.4104 5.72815 23.5056 5.60645H23.3722C23.3617 5.68883 23.372 5.64379 23.3448 5.69719C23.3401 5.7064 23.319 5.73795 23.3138 5.74676C23.31 5.75323 23.3011 5.766 23.2979 5.77125C23.2947 5.7766 23.287 5.78779 23.2833 5.79674Z" fill="#EDEDED"/>
<path fill-rule="evenodd" clip-rule="evenodd" d="M18.7048 7.08984H18.4825C18.5057 7.16405 18.4866 7.19155 18.5761 7.20018C18.6975 7.21187 18.6446 7.18728 18.7048 7.08984Z" fill="#EDEDED"/>
<path fill-rule="evenodd" clip-rule="evenodd" d="M23.1505 5.37785C23.3557 5.37394 23.2995 5.33982 23.4616 5.33982V5.30176H23.1505V5.37785Z" fill="#EDEDED"/>
<path fill-rule="evenodd" clip-rule="evenodd" d="M19.0157 7.35637H19.2825C19.2598 7.33947 19.0437 7.17632 19.0157 7.35637Z" fill="#EDEDED"/>
<path fill-rule="evenodd" clip-rule="evenodd" d="M19.5938 7.88882C19.5938 7.98338 19.6704 7.89857 19.6236 7.88882C19.623 7.88873 19.5938 7.78087 19.5938 7.88882Z" fill="#EDEDED"/>
<path fill-rule="evenodd" clip-rule="evenodd" d="M20.3497 7.81335H20.3048L20.3423 7.8583L20.3497 7.81335Z" fill="white"/>
<path fill-rule="evenodd" clip-rule="evenodd" d="M23.5083 5.5635L23.5509 5.51855C23.548 5.52141 23.4941 5.54852 23.5083 5.5635Z" fill="#EDEDED"/>
<path fill-rule="evenodd" clip-rule="evenodd" d="M20.8384 7.16213L20.881 7.11719C20.8781 7.12004 20.8243 7.14715 20.8384 7.16213Z" fill="#EDEDED"/>
<path fill-rule="evenodd" clip-rule="evenodd" d="M18.2598 7.40151L18.2149 7.35657L18.2598 7.40151Z" fill="white"/>
<path fill-rule="evenodd" clip-rule="evenodd" d="M28.405 26.1749H28.2713L28.2639 25.5754C28.4279 25.5787 28.4498 25.532 28.5833 25.4614L29.0214 25.9164C28.909 26.0794 28.6596 26.1749 28.405 26.1749ZM27.8701 25.4614C27.962 25.51 27.9757 25.5232 28.093 25.5505V26.1749C27.7479 26.1749 27.5891 26.0979 27.3797 25.9519C27.5904 25.7194 27.6844 25.6385 27.8701 25.4614ZM12.8024 24.7924C12.7034 25.1633 12.7222 25.2817 13.1243 25.5026C13.1299 25.8323 13.1442 26.2265 13.1374 26.4385C12.5417 26.2991 12.2003 26.1613 11.6879 25.8181C11.9361 25.5932 12.5268 25.0316 12.8024 24.7924ZM22.1194 26.2641V25.5059C23.0972 25.5059 22.6368 25.4683 22.8326 25.06C23.0809 25.299 23.1488 25.3421 23.4964 25.6819C23.3175 25.9491 22.5202 26.2307 22.1194 26.2641ZM20.6483 25.5505C20.7481 25.4165 20.7877 25.3825 20.8547 25.3036C21.097 25.0185 21.3478 25.5059 21.8965 25.5059L21.8891 26.2591C21.2182 26.2442 20.7289 25.7619 20.5789 25.6224L20.6483 25.5505ZM13.3373 25.5059C13.5297 25.5059 13.8452 25.5114 14.0169 25.4277C14.1179 25.3785 14.1341 25.1343 14.4708 25.5762C14.5673 25.7027 14.6377 25.7408 14.7193 25.8627C14.331 26.1773 14.0982 26.3198 13.3757 26.4338C13.3433 25.9715 13.3721 25.9692 13.3373 25.5059ZM14.4858 25.3381L15.1651 25.3276C15.1251 25.4772 14.9793 25.607 14.8976 25.7289L14.4858 25.3381ZM20.6929 25.2384C20.6044 25.3347 20.5982 25.3498 20.47 25.5059C20.1875 25.084 20.4539 25.353 20.6929 25.2384ZM26.979 25.0773C27.3781 25.0735 27.3985 25.0758 27.5671 25.0783C27.6006 25.157 27.6138 25.1802 27.6918 25.3276C27.4855 25.5173 27.4304 25.5625 27.2014 25.7735C27.0274 25.5753 26.9867 25.3564 26.979 25.0773ZM29.1866 25.7559C28.9151 25.5268 28.9142 25.5042 28.7171 25.3722C28.8132 25.2285 28.8062 25.3264 28.8062 25.06C29.141 25.0749 29.1818 25.0619 29.4848 25.055C29.4144 25.3574 29.3311 25.5266 29.1866 25.7559ZM23.6796 25.5059C23.4787 25.3319 23.2984 25.1744 23.105 24.9906C23.4023 24.984 23.7924 24.8165 24.0808 24.7924C23.8833 25.1659 23.9413 25.115 23.6796 25.5059ZM22.8326 24.1235C23.0706 24.1235 23.3085 24.1243 23.5465 24.1229C23.8587 24.1212 23.9702 24.1681 24.2592 24.1681C24.2376 24.4274 24.1713 24.4118 23.9227 24.4559C23.7002 24.4954 23.5775 24.5301 23.3769 24.5789C22.6487 24.7558 22.744 24.5042 22.8326 24.1235ZM20.0242 24.1235C21.2092 24.1235 21.2626 23.9532 21.4061 24.5694C21.1138 24.9686 20.7993 24.837 20.0242 24.837C19.9851 24.6691 19.9608 24.6436 19.9288 24.4367C19.9038 24.2756 19.8285 24.1235 20.0242 24.1235ZM15.2988 24.8816H14.1843C14.0569 24.8816 13.8723 24.6248 13.8723 24.5249C13.8723 24.3711 13.9052 24.3522 13.9168 24.2127C14.4353 24.0919 15.0003 24.2127 15.5217 24.2127C15.489 24.3529 15.4851 24.4223 15.4606 24.5975C15.4376 24.7615 15.4557 24.8816 15.2988 24.8816ZM10.9747 24.1681L12.5271 24.1759C13.0381 24.2425 12.7583 24.5649 12.5213 24.7788L11.5542 25.6843C11.0161 24.8805 11.0838 24.7699 10.9747 24.1681ZM12.7578 23.9897C12.6183 24.0013 12.5994 24.0343 12.4457 24.0343C11.4147 24.0343 11.1209 24.0108 10.9647 24.0037C10.9462 23.6038 10.979 23.4594 11.1084 23.1424C11.3001 23.1424 12.0869 23.1185 12.212 23.1532C12.3485 23.1911 12.8024 23.6623 12.8024 23.7222C12.8024 23.8596 12.778 23.8323 12.7578 23.9897ZM13.8277 23.7222C14.026 23.5893 14.2091 23.3075 14.3724 23.1967C14.5687 23.0636 15.1027 23.1424 15.388 23.1424C15.4941 23.5981 15.5217 23.4726 15.5217 24.0343H13.9168C13.9081 23.9293 13.8654 23.8065 13.8277 23.7222ZM22.6989 23.5438C23.4059 23.0701 22.8554 23.0978 23.9025 23.0978C24.0597 23.0978 24.1246 23.3905 24.1616 23.5078C24.3467 24.0956 24.3188 23.9897 23.3231 23.9897C23.0755 23.9897 23.0587 23.9451 22.8326 23.9451C22.8106 23.8505 22.8057 23.8395 22.7693 23.7409C22.7521 23.6942 22.7114 23.5718 22.6989 23.5438ZM21.317 23.9451H19.935C19.935 22.9403 20.0738 23.0978 20.8712 23.0978C21.0042 23.0978 21.3807 23.4839 21.4507 23.5884C21.3868 23.7092 21.3308 23.779 21.317 23.9451ZM13.7385 23.6329C13.6484 23.5852 13.6224 23.5869 13.5463 23.5577C13.3622 23.487 13.3819 23.5961 13.3819 23.1424H14.1397C14.0231 23.3167 13.7976 23.4119 13.7385 23.6329ZM12.5795 23.1424H13.159V23.5438C12.8703 23.6111 12.932 23.5815 12.6992 23.2903C12.6386 23.2145 12.6325 23.2217 12.5795 23.1424ZM22.5757 23.4651C22.4314 23.4234 22.3112 23.3776 22.1639 23.3654V23.0978H22.9218L22.5757 23.4651ZM21.2631 23.1069C21.9905 23.0978 21.9857 23.0139 21.9857 23.3654C21.7846 23.3698 21.7501 23.416 21.5844 23.4546L21.2631 23.1069ZM22.2085 21.8046C22.6049 21.8375 23.28 22.0983 23.4568 22.3397H22.2085V21.8046ZM21.9857 21.8046V22.3397H20.6929C20.8716 22.0726 21.5174 21.8046 21.9857 21.8046ZM17.5723 18.5045H30.2327V19.2626H17.5723V18.5045ZM12.5349 14.4464H14.4072V17.9694H12.5349V14.4464ZM10.6626 14.4018H11.4204V17.9694H10.6626V14.4018ZM18.4193 13.6883C18.441 14.6551 18.437 15.569 18.4193 16.5423H18.1073V14.045C18.1073 13.5254 18.1518 13.1772 18.1518 12.6625H19.935C19.935 13.0198 19.8693 12.8712 19.5933 13.0342C19.2013 13.2582 18.8181 13.4771 18.4193 13.6883ZM28.555 17.6513C24.9322 17.6503 23.656 17.6498 22.4314 17.6498V17.1667H22.2531V13.6883L21.0884 13.0247C20.591 12.8205 20.8698 12.6438 20.5591 12.4842C20.5047 12.4496 20.5596 12.4667 20.4611 12.4484L19.9335 12.4381C19.6516 12.4387 19.5628 12.4864 19.2674 12.4852C18.8064 12.4834 18.3454 12.4842 17.8843 12.4842V16.5423H17.7061V17.791C16.8796 17.791 16.5707 17.7914 15.6629 17.7984C15.6629 17.3748 15.5815 14.7282 15.701 14.492C16.0328 13.8364 16.7519 13.7134 17.3049 13.4207C17.3049 13.3021 17.3096 12.9857 17.3126 12.8079C14.5964 12.8333 8.79573 12.8409 7.67578 12.8409V13.4652C8.06706 13.6531 8.17627 13.6059 8.46642 14.0123C8.81195 14.4963 8.89583 15.021 8.82885 15.6446C8.76905 16.2017 8.78001 16.1916 8.8226 16.7326C8.83985 16.9519 8.83487 17.1674 8.83487 17.3896C8.83464 19.1735 8.83487 20.9572 8.83487 22.7411H8.61194C8.61194 22.3457 8.60039 22.4289 8.21073 22.4289C8.21073 22.8211 8.24659 22.6805 7.94777 22.7456C7.73356 22.7922 7.80953 22.9778 7.80953 23.187C8.62847 23.187 9.44678 23.187 10.2614 23.187C10.2435 23.4023 10.1826 23.5636 10.1725 23.8116C10.1457 24.4624 10.1603 25.052 10.4683 25.6557C10.637 25.986 10.8631 26.2373 11.1188 26.4767C11.3912 26.7317 11.7061 26.9147 12.0569 27.0545C12.8314 27.363 13.7308 27.3488 14.5283 27.0096C15.6546 26.5303 15.6323 26.1727 15.8298 26.0864L19.3709 26.0703C19.7099 26.1167 19.6425 26.0971 19.8201 26.3344C20.1108 26.7226 20.754 27.0835 21.2262 27.2021C22.3245 27.4778 23.6946 27.0902 24.4662 26.1442C24.6047 25.9608 24.9121 25.4319 25.017 25.1938H25.9086C25.9086 25.7726 26.2598 26.3157 26.6406 26.6616C28.0396 27.7251 29.7641 27.2942 30.3612 25.6345C30.4191 25.4736 30.4522 25.3973 30.5002 25.1938C31.0601 25.1938 31.6133 25.199 32.173 25.2123C33.1007 25.2734 32.7689 24.8967 32.9075 24.3019C33.0995 24.2097 33.2621 24.3129 33.3075 24.0777C33.2796 23.4871 33.2773 22.9198 33.2642 22.2505H32.7217C32.7216 21.758 32.674 21.2973 32.6846 20.8234C32.9589 20.8234 32.9257 20.8256 33.1304 20.8234C33.136 20.4691 33.1068 20.5113 32.6846 20.5113C32.6846 19.8207 32.6966 19.0502 32.64 18.3708H30.8568C30.8496 17.9511 30.8531 17.8047 30.8531 17.659C30.6679 17.6554 30.4845 17.6517 30.3033 17.6517C30.3673 15.1519 30.0779 11.9556 30.4779 10.8187C30.5867 10.5095 30.6396 10.5801 30.3888 10.4216C30.0722 10.2572 28.4639 10.3027 28.1687 10.4194C27.8784 10.6189 28.1438 10.6861 28.1879 10.878C28.4085 11.9341 28.541 16.2831 28.555 17.6513Z" fill="white"/>
<path fill-rule="evenodd" clip-rule="evenodd" d="M23.0566 32.7751H23.3241C23.2571 32.6836 23.0636 32.5248 23.0566 32.7751Z" fill="white"/>
<path d="M17.4126 33.4752V33.8189H14.8069C14.8032 33.7324 14.8225 33.6492 14.8637 33.5687C14.9306 33.437 15.0378 33.3068 15.1853 33.1793C15.3329 33.0517 15.5435 32.9044 15.8175 32.7374C16.2436 32.4762 16.5331 32.2696 16.6842 32.1168C16.8363 31.9641 16.9123 31.8195 16.9123 31.6831C16.9123 31.5406 16.8436 31.4205 16.7061 31.3223C16.5687 31.2248 16.3892 31.1757 16.1684 31.1757C15.9348 31.1757 15.7479 31.2276 15.6077 31.3312C15.4674 31.4342 15.3969 31.5774 15.3951 31.7608L14.9004 31.724C14.9342 31.4485 15.0625 31.2385 15.2842 31.0939C15.5069 30.9493 15.8047 30.877 16.1794 30.877C16.5569 30.877 16.8565 30.9548 17.0764 31.1109C17.2971 31.267 17.4071 31.4607 17.4071 31.6913C17.4071 31.8086 17.3751 31.9238 17.3099 32.037C17.2459 32.1509 17.1387 32.2702 16.9892 32.3957C16.839 32.5205 16.5907 32.6931 16.2444 32.9113C15.954 33.0927 15.767 33.2154 15.6846 33.2803C15.6021 33.345 15.5343 33.4097 15.4803 33.4752H17.4126ZM17.9357 32.3732C17.9357 32.0274 17.9834 31.7479 18.0787 31.5365C18.1748 31.3243 18.3169 31.1614 18.5055 31.0475C18.6934 30.9336 18.9307 30.877 19.2166 30.877C19.4273 30.877 19.6124 30.9084 19.7727 30.9718C19.9321 31.0352 20.0641 31.1266 20.1667 31.246C20.2693 31.3646 20.3499 31.5098 20.4086 31.6811C20.4681 31.8522 20.4974 32.0834 20.4974 32.3732C20.4974 32.7169 20.4497 32.9952 20.3555 33.2066C20.261 33.4186 20.1191 33.5816 19.9303 33.6962C19.7425 33.8108 19.5042 33.868 19.2166 33.868C18.8382 33.868 18.5404 33.7678 18.3242 33.5666C18.0648 33.3211 17.9357 32.9235 17.9357 32.3732ZM18.4304 32.3745C18.4304 32.8567 18.5055 33.1772 18.6568 33.3354C18.8079 33.4943 18.9948 33.5734 19.2166 33.5734C19.4383 33.5734 19.6252 33.4936 19.7764 33.3347C19.9275 33.1752 20.0026 32.8553 20.0026 32.3745C20.0026 31.8924 19.9275 31.5719 19.7764 31.4137C19.6261 31.2549 19.4374 31.1757 19.2111 31.1757C18.9893 31.1757 18.8116 31.246 18.6787 31.3857C18.5129 31.5638 18.4304 31.8938 18.4304 32.3745ZM20.993 32.3732C20.993 32.0274 21.0407 31.7479 21.136 31.5365C21.2322 31.3243 21.3742 31.1614 21.5628 31.0475C21.7508 30.9336 21.988 30.877 22.2739 30.877C22.4847 30.877 22.6698 30.9084 22.83 30.9718C22.9895 31.0352 23.1214 31.1266 23.224 31.246C23.3267 31.3646 23.4073 31.5098 23.4659 31.6811C23.5255 31.8522 23.5548 32.0834 23.5548 32.3732C23.5548 32.7169 23.5071 32.9952 23.4128 33.2066C23.3183 33.4186 23.1764 33.5816 22.9876 33.6962C22.7998 33.8108 22.5616 33.868 22.2739 33.868C21.8955 33.868 21.5977 33.7678 21.3816 33.5666C21.1222 33.3211 20.993 32.9235 20.993 32.3732ZM21.4877 32.3745C21.4877 32.8567 21.5628 33.1772 21.7142 33.3354C21.8653 33.4943 22.0522 33.5734 22.2739 33.5734C22.4956 33.5734 22.6825 33.4936 22.8337 33.3347C22.9849 33.1752 23.06 32.8553 23.06 32.3745C23.06 31.8924 22.9849 31.5719 22.8337 31.4137C22.6835 31.2549 22.4946 31.1757 22.2684 31.1757C22.0466 31.1757 21.8689 31.246 21.7361 31.3857C21.5702 31.5638 21.4877 31.8938 21.4877 32.3745ZM24.7953 32.2307C24.5946 32.1761 24.4462 32.0977 24.3491 31.9968C24.2528 31.8951 24.2044 31.7737 24.2044 31.6326C24.2044 31.4192 24.3069 31.2405 24.5121 31.0953C24.7183 30.95 24.9914 30.877 25.3331 30.877C25.6757 30.877 25.9524 30.9513 26.1613 31.1C26.3702 31.2487 26.4746 31.4294 26.4746 31.6429C26.4746 31.7785 26.427 31.8972 26.3317 31.9974C26.2364 32.0984 26.0917 32.1761 25.8966 32.2307C26.1375 32.2893 26.3198 32.3834 26.4453 32.5144C26.5708 32.6446 26.6341 32.8001 26.6341 32.9815C26.6341 33.2318 26.5149 33.4418 26.2777 33.6123C26.0395 33.7828 25.727 33.868 25.3394 33.868C24.9519 33.868 24.6395 33.7828 24.4013 33.6116C24.164 33.4405 24.0449 33.227 24.0449 32.9713C24.0449 32.781 24.1099 32.6214 24.24 32.4932C24.3701 32.3643 24.5552 32.2771 24.7953 32.2307ZM24.699 31.6197C24.699 31.7588 24.7586 31.8719 24.8768 31.9599C24.9959 32.0479 25.1517 32.0923 25.3449 32.0923C25.5328 32.0923 25.6849 32.0486 25.8031 31.9613C25.9212 31.874 25.9799 31.767 25.9799 31.6401C25.9799 31.5078 25.9194 31.3966 25.7975 31.3066C25.6766 31.2167 25.5237 31.1716 25.3394 31.1716C25.1535 31.1716 25.0005 31.2159 24.8796 31.3039C24.7595 31.3919 24.699 31.4969 24.699 31.6197ZM24.5396 32.974C24.5396 33.077 24.5717 33.1758 24.6358 33.2721C24.7 33.3674 24.7971 33.4418 24.9272 33.4943C25.0564 33.5469 25.1957 33.5734 25.3431 33.5734C25.5758 33.5734 25.7664 33.5182 25.9157 33.4078C26.0651 33.2972 26.1393 33.1567 26.1393 32.9863C26.1393 32.813 26.0623 32.6699 25.9094 32.5567C25.7554 32.4434 25.5612 32.3868 25.3276 32.3868C25.0986 32.3868 24.9107 32.4427 24.7623 32.5546C24.6138 32.6665 24.5396 32.8062 24.5396 32.974Z" fill="#FEFEFE"/>
<path fill-rule="evenodd" clip-rule="evenodd" d="M20.1498 1.82612C10.1449 1.82612 2.03221 9.93993 2.03221 19.9516C2.03221 29.9632 10.1449 38.077 20.1498 38.077C30.1546 38.077 38.2673 29.9632 38.2673 19.9516C38.2673 9.93993 30.1546 1.82612 20.1498 1.82612ZM0.330078 19.9516C0.330078 9.00342 9.20243 0.125977 20.1498 0.125977C31.0971 0.125977 39.9695 9.00342 39.9695 19.9516C39.9695 30.8997 31.0971 39.7771 20.1498 39.7771C9.20243 39.7771 0.330078 30.8997 0.330078 19.9516Z" fill="#00214B"/>
</g>
<defs>
<clipPath id="clip0_4525_1219">
<rect width="124" height="40" fill="white"/>
</clipPath>
</defs>
</svg>
