<svg width="40" height="40" viewBox="0 0 40 40" fill="none" xmlns="http://www.w3.org/2000/svg">
<path d="M20.1507 37.1391C29.64 37.1391 37.3327 29.4436 37.3327 19.9509C37.3327 10.4581 29.64 2.7627 20.1507 2.7627C10.6614 2.7627 2.96875 10.4581 2.96875 19.9509C2.96875 29.4436 10.6614 37.1391 20.1507 37.1391Z" fill="#00214B"/>
<path fill-rule="evenodd" clip-rule="evenodd" d="M20.1502 2.88354C10.7277 2.88354 3.0889 10.5248 3.0889 19.9512C3.0889 29.3776 10.7277 37.0189 20.1502 37.0189C29.5728 37.0189 37.2116 29.3776 37.2116 19.9512C37.2116 10.5248 29.5728 2.88354 20.1502 2.88354ZM2.84766 19.9512C2.84766 10.3921 10.5941 2.64258 20.1502 2.64258C29.7064 2.64258 37.4528 10.3921 37.4528 19.9512C37.4528 29.5104 29.7064 37.2599 20.1502 37.2599C10.5941 37.2599 2.84766 29.5104 2.84766 19.9512Z" fill="#00214B"/>
<path d="M32.0254 27.6309H9.44727V28.0803H32.0254V27.6309Z" stroke="#FEFEFE" stroke-width="1.0583"/>
<path fill-rule="evenodd" clip-rule="evenodd" d="M21.3455 8.23277L21.39 8.27079H21.5234C21.2693 8.59555 20.7231 8.32068 20.7231 8.87964C21.0526 8.87964 21.0541 8.70809 21.3863 8.84409L21.5678 8.95573C21.5217 9.10373 21.5241 9.05119 21.3455 9.18405L20.9899 9.41236C20.8756 9.34175 20.9411 9.23488 20.7093 9.15546C20.4235 9.05758 20.6282 9.29115 20.3262 9.31722C20.174 9.33034 20.0757 9.28355 20.0118 9.4885L19.3879 9.33326C19.2472 9.29969 19.3442 9.26351 19.167 9.33627V9.18405C19.0103 9.15281 19.021 9.14602 18.8114 9.14602C18.7665 9.05308 18.7813 9.11528 18.8114 8.9938L18.1749 8.8534C18.1638 8.85056 18.1531 8.84611 18.1422 8.84301C18.1314 8.83996 18.1206 8.83528 18.1099 8.83214L17.9426 8.78567C17.86 8.75313 17.8809 8.74746 17.8652 8.73124C17.7939 8.65762 17.9045 8.68944 17.7888 8.65133C17.825 8.28755 18.0972 8.60989 18.3224 8.34692C18.536 8.48095 18.2797 8.48472 18.5891 8.42301L18.4481 8.27668C18.6556 8.25209 18.5672 8.32773 18.5891 8.15663C18.4343 8.06796 18.262 8.06036 18.0111 8.04247C17.9632 7.94324 18.0347 7.85991 17.8063 7.83232C17.1961 7.75861 17.3685 7.59874 16.9004 7.58522C16.5428 7.57492 16.4806 7.63717 16.4106 7.47169C16.0637 7.47169 16.2745 7.49614 16.0732 7.56544C15.9031 7.62396 15.7867 7.57465 15.6653 7.53906C15.5101 7.49353 15.3172 7.41268 15.173 7.41011C15.0575 7.408 15.1821 7.45358 14.9736 7.40508C14.897 7.38724 15.0057 7.30261 14.6437 7.40274C14.242 7.51385 14.0973 7.48099 13.954 7.53627C13.7951 7.59758 13.8225 7.64683 13.6096 7.66198C13.7422 7.83142 13.7088 7.75744 13.9954 7.78859C14.6666 7.86158 14.4014 7.70292 14.6717 7.77838C14.7384 7.79699 14.7909 7.82787 14.8531 7.84895C15.2277 7.97582 15.279 7.85663 15.6549 7.96719C15.7032 7.98144 15.6062 7.97385 15.7556 7.99726C16.2713 8.07802 15.7407 7.84495 16.3128 8.16589C16.6445 8.35187 16.622 8.05034 16.8107 8.27079C15.5546 8.27079 16.141 8.45101 15.6274 8.33937C15.4767 8.30661 15.4461 8.35587 15.2102 8.30886C15.2055 8.49097 15.1263 8.46454 15.1258 8.4649L15.0323 8.4991C14.8564 8.44459 15.0402 8.38495 14.5878 8.38495C14.6019 8.27434 14.6689 8.26769 14.6322 8.23277C14.5823 8.18522 14.4876 8.24719 14.3232 8.11672C14.2096 8.02656 14.4376 8.11349 14.2321 8.04247C14.2321 8.19753 14.2522 8.37259 14.2765 8.42301C14.0525 8.40706 13.9338 8.40095 13.8319 8.27079C14.0753 8.27079 14.0368 8.29259 14.1432 8.15663C14.1102 8.0511 14.0816 8.06513 14.0101 8.00418C13.9794 7.97807 13.8945 7.89933 13.8488 7.87578C13.7357 7.81753 13.4875 7.79169 13.3212 7.83263C13.033 7.9036 13.2566 7.85933 13.1238 7.93106C13.0599 7.96549 13.0795 7.94931 13.037 7.97101C12.9532 8.01385 13.0005 7.97758 12.9329 8.03506L12.8228 8.19533C12.7992 8.29488 12.8493 8.2236 12.8094 8.38495C13.0029 8.38863 13.0519 8.42301 13.2984 8.42301C13.398 8.60059 13.2745 8.5209 13.4318 8.57524C13.2062 8.74306 13.23 8.75452 13.0761 8.76549C13.0516 8.57385 13.1309 8.68045 12.9574 8.65789C12.9483 8.65672 12.9341 8.65879 12.9245 8.65847C12.9147 8.65816 12.901 8.66036 12.8909 8.66059C12.8809 8.66077 12.8677 8.66243 12.8576 8.66288C12.7829 8.6662 12.8182 8.66292 12.7263 8.66967C12.3618 8.69641 12.5138 8.6334 12.2314 8.61326C12.0893 8.70238 12.2057 8.66499 12.0646 8.73686L11.3867 8.95573C11.4541 9.1151 11.4776 8.95501 11.5417 9.16144C11.5464 9.17663 11.5122 9.16324 11.5645 9.26018C11.797 9.30652 11.6404 9.27695 11.8758 9.26018C12.0966 9.65416 12.1617 9.36854 12.4537 9.4885C12.7105 9.62791 12.9621 9.40472 13.1806 9.38859C13.3114 9.37892 13.3035 9.39587 13.5618 9.45308C13.7825 9.50193 13.7004 9.52337 13.7875 9.67874C14.6615 9.67874 14.1538 9.79915 14.5878 9.60265C14.5437 9.74373 14.5428 9.65182 14.4988 9.7929C14.743 9.71726 14.318 9.876 14.5842 9.74773C14.7369 9.67411 14.6334 9.7165 14.8217 9.72468C14.8279 9.72495 14.8425 9.72459 14.848 9.72454C15.0442 9.72324 14.951 9.67614 15.0192 9.59043C15.1045 9.48337 15.125 9.46899 15.2913 9.45789C15.5037 9.44378 15.4908 9.43937 15.6103 9.4885C15.5252 9.76131 15.3624 9.47483 15.1657 9.7929C15.3825 9.91713 15.1863 9.80504 15.4941 9.85182C15.6167 9.87043 15.8124 9.9422 15.8847 9.97663C16.1115 10.0847 15.7628 9.8902 15.9398 10.0056L16.1596 10.1625C16.3298 10.2552 16.2122 10.2009 16.2772 10.4398H16.3661C16.3735 10.1561 16.3498 10.3797 16.4269 10.3015C16.5761 10.1501 16.446 10.4191 16.544 10.2115H16.6329C16.6329 10.6324 16.978 10.4463 17.2633 10.5471C17.3463 10.5764 17.3124 10.5568 17.3681 10.6096C17.4289 10.6671 17.3995 10.6266 17.4331 10.7062H17.5665C17.5976 10.5949 17.5608 10.6514 17.6555 10.592C18.2322 10.8532 18.0885 10.6294 18.5833 10.7489C18.9028 10.8261 19.2533 10.7834 19.3331 10.7965C19.4852 10.8216 19.3696 10.8399 19.5424 10.8797C19.6602 10.9067 19.8296 10.8234 20.2874 10.845C20.3718 10.8489 21.0524 10.7744 21.3471 10.9915L21.39 11.0486C22.1363 11.0486 22.0176 10.9187 22.5847 10.8179C23.1142 10.7239 23.1356 10.4658 23.4094 10.5088L23.4615 10.5236C23.7045 10.5624 23.6557 10.4118 23.8518 10.3051C23.8561 10.3027 23.8676 10.2975 23.872 10.2952L24.0551 10.2276C24.2869 10.1591 24.0946 10.1245 24.3699 10.0222C24.8672 9.83722 24.6452 9.85155 24.9512 9.94171C25.3287 10.053 26.1256 9.66971 26.8701 9.82099C27.3358 9.9156 27.4376 10.112 27.6588 10.0212L27.5698 9.94513V9.71681C27.5917 9.70814 27.7011 9.68638 27.7029 9.68544L27.7562 9.64409C27.8347 9.57928 28.328 9.36746 28.2034 9.06274C28.1109 8.83681 28.0367 9.01749 27.9699 8.80355C28.3685 8.80355 28.2954 8.61295 28.3071 8.22791C28.3094 8.14809 28.2811 8.08683 28.2811 7.96638C27.8844 7.96638 28.0379 7.93326 27.912 7.71155C27.8381 7.58144 27.8885 7.7525 27.8365 7.58585C27.9516 7.41888 28.0206 7.532 28.1923 7.43367C28.1215 7.26647 28.198 7.43416 28.1015 7.32108C28.0029 7.20562 28.0398 7.36607 28.0144 7.16728C27.8185 7.17101 27.8065 7.20535 27.5698 7.20535C27.527 7.06814 27.5658 7.10355 27.392 7.09119C27.4006 7.42005 27.4455 7.08072 27.4809 7.35753C27.1849 7.29852 27.2506 7.21474 26.9029 7.35753L26.9827 7.44149C26.989 7.44674 26.9993 7.45443 27.006 7.45973L27.1704 7.59394C27.3678 7.87946 27.0065 7.70638 26.9543 7.67416L26.8224 7.58086C26.7814 7.56441 26.7877 7.57304 26.7309 7.56342C26.6474 7.54931 26.6399 7.63915 26.5973 7.49973C26.561 7.38144 26.6252 7.36445 26.6806 7.31951C26.5052 7.332 26.4723 7.35753 26.236 7.35753V7.66198C26.0448 7.6756 26.1238 7.6982 25.8913 7.69011L25.6553 7.70095C25.651 7.70126 25.6387 7.7009 25.6347 7.70108L25.0801 7.73807C25.1363 7.61888 25.1758 7.73789 25.213 7.57025L25.2357 7.49474C25.2882 7.33542 25.2331 7.62836 25.258 7.43367C25.1458 7.53483 25.0399 7.51254 24.9023 7.43367V7.54782C24.7249 7.54441 24.7368 7.4969 24.6417 7.39029L24.599 7.35074C24.5933 7.34602 24.5784 7.33807 24.5735 7.33447C24.5686 7.33083 24.5553 7.32472 24.5466 7.31951C24.9393 7.31951 24.8962 7.34562 24.9939 7.15668C24.9943 7.15587 25.0338 7.09349 25.0356 7.09119C25.1618 7.11632 25.1679 7.14656 25.2524 7.14328C25.2542 7.14319 25.349 7.11847 25.3665 7.11227C25.5048 7.06324 25.3731 7.09668 25.4943 7.06625C25.6119 7.03677 25.9487 6.9791 26.0582 6.97704L26.1996 7.12234C26.2889 7.17969 26.2945 7.18153 26.4139 7.20535C26.4085 6.9974 26.3239 7.0067 26.1513 6.93542C26.0849 6.908 26.0995 6.91335 26.0664 6.89389C25.9266 6.81155 25.9091 6.78674 25.7025 6.78674C25.7025 6.5711 25.7412 6.64059 25.6136 6.5965V6.52041C25.8428 6.50409 25.7131 6.47047 25.8532 6.4458C25.8577 6.44499 25.8709 6.44549 25.8751 6.44495L25.9325 6.44504C25.9853 6.41461 25.9622 6.60176 25.9693 6.33011C26.2044 6.43659 26.4285 6.30638 26.4024 6.52535C26.3898 6.63011 26.3967 6.5809 26.325 6.67259C26.4166 6.71411 26.4303 6.7254 26.5472 6.74872C26.5014 6.82292 26.4219 6.87645 26.5263 6.924C26.6358 6.97394 26.9699 6.84508 27.0656 6.81187C27.0755 6.80841 27.0876 6.80454 27.0968 6.8005L27.2586 6.63456C27.1832 6.51254 27.0505 6.42427 27.0357 6.33061C27.0295 6.29074 27.0363 6.18638 27.0363 6.13987C26.7638 6.13987 26.7044 6.07964 26.6806 5.83546C26.528 5.89811 26.433 5.83672 26.252 5.87955C26.2455 5.88108 26.232 5.88265 26.2255 5.8845C26.0948 5.92225 26.2085 5.82598 26.1026 5.94962C26.2965 6.02917 26.2501 5.92427 26.3694 6.06378C26.2895 6.32 26.1137 6.13987 25.8359 6.13987L25.8462 6.22679C25.8314 6.30216 25.7048 6.2871 25.6128 6.28611C25.4914 6.28481 25.4945 6.27461 25.3914 6.25402C25.3914 6.06108 25.3469 6.0467 25.3469 5.83546C25.4347 5.83546 25.5122 5.84346 25.5884 5.84607C25.6902 5.84962 25.6809 5.83843 25.8359 5.83546C25.752 5.73744 25.7277 5.73101 25.3909 5.75762C25.2798 5.76643 25.2639 5.7645 25.1872 5.81295L25.0575 5.93029C24.9884 5.99002 24.8633 6.08522 24.8391 6.17915C24.8197 6.25416 24.8698 6.18733 24.8134 6.32976C24.7987 6.36683 24.7481 6.44405 24.7244 6.48234C24.8236 6.52724 24.8583 6.54585 24.9467 6.5965C24.9004 6.67919 24.926 6.66216 24.8918 6.74337C24.8869 6.75483 24.8704 6.78791 24.8658 6.79874C24.833 6.87825 24.8487 6.77047 24.8371 6.87245C24.823 6.99668 24.9023 6.91187 24.9023 7.16728C24.2961 7.28814 24.7314 7.24845 24.3243 7.16728C24.1763 7.25214 24.0058 7.3396 23.9242 7.47169C24.0125 7.508 24.0832 7.52629 24.1909 7.54782C24.1395 7.71272 24.1615 7.6494 24.0117 7.69883C23.8484 7.75268 23.8573 7.67955 23.8352 7.85223C23.5263 7.71232 23.6147 7.90288 23.3907 7.81416C23.2308 7.73349 23.3263 7.70863 23.2196 7.61816C23.1657 7.5725 23.224 7.66481 23.1239 7.54782C23.2667 7.46593 23.2219 7.45295 23.4112 7.3751C23.5769 7.30688 23.5931 7.33362 23.6129 7.12922C23.4625 7.13996 23.5227 7.15358 23.4502 7.13533C23.3557 7.1116 23.4041 7.08486 23.3017 7.05313C23.2453 7.26032 23.1239 7.27609 23.1239 7.50976C22.8454 7.50976 22.6239 7.48967 22.366 7.54602C22.0061 7.62477 22.0189 7.66198 21.6123 7.66198C21.5917 7.87452 21.5513 7.74229 21.6123 7.96638C21.3747 7.97092 21.3636 8.04728 21.3455 8.23277Z" fill="white"/>
<path fill-rule="evenodd" clip-rule="evenodd" d="M18.2598 7.39453V7.54671C18.3384 7.5624 18.3941 7.56891 18.4778 7.58842C18.6475 7.62806 18.5458 7.62464 18.7044 7.66087C18.6885 7.82451 18.7107 7.72945 18.6155 7.85116H18.8822C18.9388 7.95215 18.9228 7.89188 18.9266 8.04141C19.15 8.04141 19.1573 8.04563 19.3268 8.07948C19.3516 7.82379 19.724 7.75624 19.3046 7.60383C19.1756 7.557 19.0984 7.53098 18.9655 7.51345L18.2598 7.39453Z" fill="#EDEDED"/>
<path fill-rule="evenodd" clip-rule="evenodd" d="M27.4176 5.83476C27.2643 5.63876 27.3644 5.64905 27.1509 5.60645C27.1272 5.84919 27.0314 5.83476 27.4176 5.83476Z" fill="#EDEDED"/>
<path fill-rule="evenodd" clip-rule="evenodd" d="M23.6836 5.41586C23.84 5.52773 23.9228 5.37492 23.9504 5.33977C23.8258 5.25069 23.7375 5.33065 23.6836 5.41586Z" fill="#EDEDED"/>
<path fill-rule="evenodd" clip-rule="evenodd" d="M22.9277 5.56824C23.0089 5.60262 22.9833 5.59759 23.1056 5.60626C23.049 5.50527 23.065 5.56554 23.0611 5.41602H22.9722C22.9634 5.50437 22.9625 5.51332 22.9277 5.56824Z" fill="#EDEDED"/>
<path fill-rule="evenodd" clip-rule="evenodd" d="M23.2832 5.79674H23.4166C23.4325 5.6331 23.4103 5.72815 23.5055 5.60645H23.3721C23.3616 5.68883 23.3719 5.64379 23.3447 5.69719C23.34 5.7064 23.3189 5.73795 23.3137 5.74676C23.3099 5.75323 23.301 5.766 23.2978 5.77125C23.2947 5.7766 23.2869 5.78779 23.2832 5.79674Z" fill="#EDEDED"/>
<path fill-rule="evenodd" clip-rule="evenodd" d="M18.7047 7.08984H18.4824C18.5056 7.16405 18.4866 7.19155 18.5761 7.20018C18.6974 7.21187 18.6445 7.18728 18.7047 7.08984Z" fill="#EDEDED"/>
<path fill-rule="evenodd" clip-rule="evenodd" d="M23.1504 5.37785C23.3556 5.37394 23.2994 5.33982 23.4616 5.33982V5.30176H23.1504V5.37785Z" fill="#EDEDED"/>
<path fill-rule="evenodd" clip-rule="evenodd" d="M19.0156 7.35637H19.2824C19.2597 7.33947 19.0436 7.17632 19.0156 7.35637Z" fill="#EDEDED"/>
<path fill-rule="evenodd" clip-rule="evenodd" d="M19.5938 7.88882C19.5938 7.98338 19.6703 7.89857 19.6235 7.88882C19.6229 7.88873 19.5938 7.78087 19.5938 7.88882Z" fill="#EDEDED"/>
<path fill-rule="evenodd" clip-rule="evenodd" d="M20.3496 7.81348H20.3047L20.3421 7.85842L20.3496 7.81348Z" fill="white"/>
<path fill-rule="evenodd" clip-rule="evenodd" d="M23.5083 5.5635L23.5508 5.51855C23.5479 5.52141 23.494 5.54852 23.5083 5.5635Z" fill="#EDEDED"/>
<path fill-rule="evenodd" clip-rule="evenodd" d="M20.8383 7.16213L20.8809 7.11719C20.878 7.12004 20.8242 7.14715 20.8383 7.16213Z" fill="#EDEDED"/>
<path fill-rule="evenodd" clip-rule="evenodd" d="M18.2598 7.40139L18.2148 7.35645L18.2598 7.40139Z" fill="white"/>
<path fill-rule="evenodd" clip-rule="evenodd" d="M28.405 26.1749H28.2713L28.2639 25.5754C28.4279 25.5787 28.4498 25.532 28.5833 25.4614L29.0214 25.9164C28.909 26.0794 28.6596 26.1749 28.405 26.1749ZM27.8701 25.4614C27.962 25.51 27.9757 25.5232 28.093 25.5505V26.1749C27.7479 26.1749 27.5891 26.0979 27.3797 25.9519C27.5904 25.7194 27.6844 25.6385 27.8701 25.4614ZM12.8024 24.7924C12.7034 25.1633 12.7222 25.2817 13.1243 25.5026C13.1299 25.8323 13.1442 26.2265 13.1374 26.4385C12.5417 26.2991 12.2003 26.1613 11.6879 25.8181C11.9361 25.5932 12.5268 25.0316 12.8024 24.7924ZM22.1194 26.2641V25.5059C23.0972 25.5059 22.6368 25.4683 22.8326 25.06C23.0809 25.299 23.1488 25.3421 23.4964 25.6819C23.3175 25.9491 22.5202 26.2307 22.1194 26.2641ZM20.6483 25.5505C20.7481 25.4165 20.7877 25.3825 20.8547 25.3036C21.097 25.0185 21.3478 25.5059 21.8965 25.5059L21.8891 26.2591C21.2182 26.2442 20.7289 25.7619 20.5789 25.6224L20.6483 25.5505ZM13.3373 25.5059C13.5297 25.5059 13.8452 25.5114 14.0169 25.4277C14.1179 25.3785 14.1341 25.1343 14.4708 25.5762C14.5673 25.7027 14.6377 25.7408 14.7193 25.8627C14.331 26.1773 14.0982 26.3198 13.3757 26.4338C13.3433 25.9715 13.3721 25.9692 13.3373 25.5059ZM14.4858 25.3381L15.1651 25.3276C15.1251 25.4772 14.9793 25.607 14.8976 25.7289L14.4858 25.3381ZM20.6929 25.2384C20.6044 25.3347 20.5982 25.3498 20.47 25.5059C20.1875 25.084 20.4539 25.353 20.6929 25.2384ZM26.979 25.0773C27.3781 25.0735 27.3985 25.0758 27.5671 25.0783C27.6006 25.157 27.6138 25.1802 27.6918 25.3276C27.4855 25.5173 27.4304 25.5625 27.2014 25.7735C27.0274 25.5753 26.9867 25.3564 26.979 25.0773ZM29.1866 25.7559C28.9151 25.5268 28.9142 25.5042 28.7171 25.3722C28.8132 25.2285 28.8062 25.3264 28.8062 25.06C29.141 25.0749 29.1818 25.0619 29.4848 25.055C29.4144 25.3574 29.3311 25.5266 29.1866 25.7559ZM23.6796 25.5059C23.4787 25.3319 23.2984 25.1744 23.105 24.9906C23.4023 24.984 23.7924 24.8165 24.0808 24.7924C23.8833 25.1659 23.9413 25.115 23.6796 25.5059ZM22.8326 24.1235C23.0706 24.1235 23.3085 24.1243 23.5465 24.1229C23.8587 24.1212 23.9702 24.1681 24.2592 24.1681C24.2376 24.4274 24.1713 24.4118 23.9227 24.4559C23.7002 24.4954 23.5775 24.5301 23.3769 24.5789C22.6487 24.7558 22.744 24.5042 22.8326 24.1235ZM20.0242 24.1235C21.2092 24.1235 21.2626 23.9532 21.4061 24.5694C21.1138 24.9686 20.7993 24.837 20.0242 24.837C19.9851 24.6691 19.9608 24.6436 19.9288 24.4367C19.9038 24.2756 19.8285 24.1235 20.0242 24.1235ZM15.2988 24.8816H14.1843C14.0569 24.8816 13.8723 24.6248 13.8723 24.5249C13.8723 24.3711 13.9052 24.3522 13.9168 24.2127C14.4353 24.0919 15.0003 24.2127 15.5217 24.2127C15.489 24.3529 15.4851 24.4223 15.4606 24.5975C15.4376 24.7615 15.4557 24.8816 15.2988 24.8816ZM10.9747 24.1681L12.5271 24.1759C13.0381 24.2425 12.7583 24.5649 12.5213 24.7788L11.5542 25.6843C11.0161 24.8805 11.0838 24.7699 10.9747 24.1681ZM12.7578 23.9897C12.6183 24.0013 12.5994 24.0343 12.4457 24.0343C11.4147 24.0343 11.1209 24.0108 10.9647 24.0037C10.9462 23.6038 10.979 23.4594 11.1084 23.1424C11.3001 23.1424 12.0869 23.1185 12.212 23.1532C12.3485 23.1911 12.8024 23.6623 12.8024 23.7222C12.8024 23.8596 12.778 23.8323 12.7578 23.9897ZM13.8277 23.7222C14.026 23.5893 14.2091 23.3075 14.3724 23.1967C14.5687 23.0636 15.1027 23.1424 15.388 23.1424C15.4941 23.5981 15.5217 23.4726 15.5217 24.0343H13.9168C13.9081 23.9293 13.8654 23.8065 13.8277 23.7222ZM22.6989 23.5438C23.4059 23.0701 22.8554 23.0978 23.9025 23.0978C24.0597 23.0978 24.1246 23.3905 24.1616 23.5078C24.3467 24.0956 24.3188 23.9897 23.3231 23.9897C23.0755 23.9897 23.0587 23.9451 22.8326 23.9451C22.8106 23.8505 22.8057 23.8395 22.7693 23.7409C22.7521 23.6942 22.7114 23.5718 22.6989 23.5438ZM21.317 23.9451H19.935C19.935 22.9403 20.0738 23.0978 20.8712 23.0978C21.0042 23.0978 21.3807 23.4839 21.4507 23.5884C21.3868 23.7092 21.3308 23.779 21.317 23.9451ZM13.7385 23.6329C13.6484 23.5852 13.6224 23.5869 13.5463 23.5577C13.3622 23.487 13.3819 23.5961 13.3819 23.1424H14.1397C14.0231 23.3167 13.7976 23.4119 13.7385 23.6329ZM12.5795 23.1424H13.159V23.5438C12.8703 23.6111 12.932 23.5815 12.6992 23.2903C12.6386 23.2145 12.6325 23.2217 12.5795 23.1424ZM22.5757 23.4651C22.4314 23.4234 22.3112 23.3776 22.1639 23.3654V23.0978H22.9218L22.5757 23.4651ZM21.2631 23.1069C21.9905 23.0978 21.9857 23.0139 21.9857 23.3654C21.7846 23.3698 21.7501 23.416 21.5844 23.4546L21.2631 23.1069ZM22.2085 21.8046C22.6049 21.8375 23.28 22.0983 23.4568 22.3397H22.2085V21.8046ZM21.9857 21.8046V22.3397H20.6929C20.8716 22.0726 21.5174 21.8046 21.9857 21.8046ZM17.5723 18.5045H30.2327V19.2626H17.5723V18.5045ZM12.5349 14.4464H14.4072V17.9694H12.5349V14.4464ZM10.6626 14.4018H11.4204V17.9694H10.6626V14.4018ZM18.4193 13.6883C18.441 14.6551 18.437 15.569 18.4193 16.5423H18.1073V14.045C18.1073 13.5254 18.1518 13.1772 18.1518 12.6625H19.935C19.935 13.0198 19.8693 12.8712 19.5933 13.0342C19.2013 13.2582 18.8181 13.4771 18.4193 13.6883ZM28.555 17.6513C24.9322 17.6503 23.656 17.6498 22.4314 17.6498V17.1667H22.2531V13.6883L21.0884 13.0247C20.591 12.8205 20.8698 12.6438 20.5591 12.4842C20.5047 12.4496 20.5596 12.4667 20.4611 12.4484L19.9335 12.4381C19.6516 12.4387 19.5628 12.4864 19.2674 12.4852C18.8064 12.4834 18.3454 12.4842 17.8843 12.4842V16.5423H17.7061V17.791C16.8796 17.791 16.5707 17.7914 15.6629 17.7984C15.6629 17.3748 15.5815 14.7282 15.701 14.492C16.0328 13.8364 16.7519 13.7134 17.3049 13.4207C17.3049 13.3021 17.3096 12.9857 17.3126 12.8079C14.5964 12.8333 8.79573 12.8409 7.67578 12.8409V13.4652C8.06706 13.6531 8.17627 13.6059 8.46642 14.0123C8.81195 14.4963 8.89583 15.021 8.82885 15.6446C8.76905 16.2017 8.78001 16.1916 8.8226 16.7326C8.83985 16.9519 8.83487 17.1674 8.83487 17.3896C8.83464 19.1735 8.83487 20.9572 8.83487 22.7411H8.61194C8.61194 22.3457 8.60039 22.4289 8.21073 22.4289C8.21073 22.8211 8.24659 22.6805 7.94777 22.7456C7.73356 22.7922 7.80953 22.9778 7.80953 23.187C8.62847 23.187 9.44678 23.187 10.2614 23.187C10.2435 23.4023 10.1826 23.5636 10.1725 23.8116C10.1457 24.4624 10.1603 25.052 10.4683 25.6557C10.637 25.986 10.8631 26.2373 11.1188 26.4767C11.3912 26.7317 11.7061 26.9147 12.0569 27.0545C12.8314 27.363 13.7308 27.3488 14.5283 27.0096C15.6546 26.5303 15.6323 26.1727 15.8298 26.0864L19.3709 26.0703C19.7099 26.1167 19.6425 26.0971 19.8201 26.3344C20.1108 26.7226 20.754 27.0835 21.2262 27.2021C22.3245 27.4778 23.6946 27.0902 24.4662 26.1442C24.6047 25.9608 24.9121 25.4319 25.017 25.1938H25.9086C25.9086 25.7726 26.2598 26.3157 26.6406 26.6616C28.0396 27.7251 29.7641 27.2942 30.3612 25.6345C30.4191 25.4736 30.4522 25.3973 30.5002 25.1938C31.0601 25.1938 31.6133 25.199 32.173 25.2123C33.1007 25.2734 32.7689 24.8967 32.9075 24.3019C33.0995 24.2097 33.2621 24.3129 33.3075 24.0777C33.2796 23.4871 33.2773 22.9198 33.2642 22.2505H32.7217C32.7216 21.758 32.674 21.2973 32.6846 20.8234C32.9589 20.8234 32.9257 20.8256 33.1304 20.8234C33.136 20.4691 33.1068 20.5113 32.6846 20.5113C32.6846 19.8207 32.6966 19.0502 32.64 18.3708H30.8568C30.8496 17.9511 30.8531 17.8047 30.8531 17.659C30.6679 17.6554 30.4845 17.6517 30.3033 17.6517C30.3673 15.1519 30.0779 11.9556 30.4779 10.8187C30.5867 10.5095 30.6396 10.5801 30.3888 10.4216C30.0722 10.2572 28.4639 10.3027 28.1687 10.4194C27.8784 10.6189 28.1438 10.6861 28.1879 10.878C28.4085 11.9341 28.541 16.2831 28.555 17.6513Z" fill="white"/>
<path fill-rule="evenodd" clip-rule="evenodd" d="M23.0566 32.7751H23.3241C23.2571 32.6836 23.0636 32.5248 23.0566 32.7751Z" fill="white"/>
<path d="M17.4128 33.4752V33.8189H14.8071C14.8034 33.7323 14.8227 33.6491 14.8639 33.5686C14.9308 33.437 15.038 33.3068 15.1855 33.1792C15.3331 33.0517 15.5437 32.9044 15.8177 32.7373C16.2438 32.4761 16.5333 32.2695 16.6844 32.1168C16.8365 31.964 16.9125 31.8194 16.9125 31.683C16.9125 31.5405 16.8438 31.4205 16.7063 31.3223C16.569 31.2248 16.3894 31.1756 16.1686 31.1756C15.935 31.1756 15.7481 31.2275 15.6079 31.3311C15.4676 31.4341 15.3971 31.5773 15.3953 31.7608L14.9006 31.7239C14.9344 31.4484 15.0627 31.2384 15.2844 31.0938C15.5071 30.9492 15.8049 30.877 16.1796 30.877C16.5571 30.877 16.8567 30.9547 17.0766 31.1108C17.2973 31.267 17.4073 31.4607 17.4073 31.6912C17.4073 31.8085 17.3753 31.9237 17.3101 32.0369C17.2461 32.1508 17.1389 32.2702 16.9894 32.3957C16.8392 32.5204 16.5909 32.693 16.2446 32.9112C15.9542 33.0926 15.7672 33.2153 15.6848 33.2802C15.6023 33.3449 15.5345 33.4097 15.4805 33.4752H17.4128ZM17.9359 32.3731C17.9359 32.0274 17.9836 31.7478 18.0789 31.5364C18.175 31.3243 18.3171 31.1613 18.5057 31.0475C18.6936 30.9335 18.9309 30.877 19.2168 30.877C19.4275 30.877 19.6126 30.9083 19.7729 30.9717C19.9323 31.0352 20.0643 31.1266 20.1669 31.2459C20.2695 31.3645 20.3501 31.5098 20.4088 31.681C20.4683 31.8521 20.4976 32.0833 20.4976 32.3731C20.4976 32.7169 20.4499 32.9951 20.3557 33.2065C20.2612 33.4186 20.1193 33.5815 19.9305 33.6961C19.7427 33.8107 19.5044 33.868 19.2168 33.868C18.8384 33.868 18.5406 33.7678 18.3245 33.5665C18.065 33.321 17.9359 32.9235 17.9359 32.3731ZM18.4306 32.3745C18.4306 32.8566 18.5057 33.1772 18.657 33.3354C18.8081 33.4943 18.995 33.5734 19.2168 33.5734C19.4385 33.5734 19.6254 33.4936 19.7766 33.3347C19.9277 33.1752 20.0029 32.8552 20.0029 32.3745C20.0029 31.8923 19.9277 31.5719 19.7766 31.4137C19.6263 31.2548 19.4376 31.1756 19.2113 31.1756C18.9895 31.1756 18.8118 31.2459 18.6789 31.3857C18.5131 31.5637 18.4306 31.8937 18.4306 32.3745ZM20.9932 32.3731C20.9932 32.0274 21.0409 31.7478 21.1362 31.5364C21.2324 31.3243 21.3744 31.1613 21.5631 31.0475C21.751 30.9335 21.9882 30.877 22.2741 30.877C22.4849 30.877 22.67 30.9083 22.8302 30.9717C22.9897 31.0352 23.1216 31.1266 23.2243 31.2459C23.3269 31.3645 23.4075 31.5098 23.4661 31.681C23.5257 31.8521 23.555 32.0833 23.555 32.3731C23.555 32.7169 23.5073 32.9951 23.413 33.2065C23.3186 33.4186 23.1766 33.5815 22.9878 33.6961C22.8 33.8107 22.5618 33.868 22.2741 33.868C21.8957 33.868 21.5979 33.7678 21.3818 33.5665C21.1224 33.321 20.9932 32.9235 20.9932 32.3731ZM21.4879 32.3745C21.4879 32.8566 21.5631 33.1772 21.7144 33.3354C21.8655 33.4943 22.0524 33.5734 22.2741 33.5734C22.4958 33.5734 22.6827 33.4936 22.8339 33.3347C22.9851 33.1752 23.0602 32.8552 23.0602 32.3745C23.0602 31.8923 22.9851 31.5719 22.8339 31.4137C22.6837 31.2548 22.4949 31.1756 22.2686 31.1756C22.0468 31.1756 21.8691 31.2459 21.7363 31.3857C21.5704 31.5637 21.4879 31.8937 21.4879 32.3745ZM24.7955 32.2306C24.5948 32.1761 24.4464 32.0977 24.3493 31.9967C24.253 31.8951 24.2046 31.7737 24.2046 31.6325C24.2046 31.4191 24.3071 31.2404 24.5123 31.0952C24.7185 30.9499 24.9916 30.877 25.3333 30.877C25.6759 30.877 25.9526 30.9512 26.1615 31.0999C26.3704 31.2486 26.4748 31.4293 26.4748 31.6428C26.4748 31.7785 26.4272 31.8971 26.3319 31.9974C26.2366 32.0983 26.0919 32.1761 25.8968 32.2306C26.1377 32.2893 26.32 32.3834 26.4456 32.5143C26.571 32.6445 26.6343 32.8001 26.6343 32.9814C26.6343 33.2317 26.5151 33.4418 26.2779 33.6123C26.0397 33.7828 25.7273 33.868 25.3396 33.868C24.9521 33.868 24.6397 33.7828 24.4015 33.6116C24.1642 33.4404 24.0451 33.227 24.0451 32.9712C24.0451 32.781 24.1101 32.6214 24.2402 32.4931C24.3703 32.3643 24.5554 32.277 24.7955 32.2306ZM24.6992 31.6196C24.6992 31.7588 24.7588 31.8719 24.877 31.9599C24.9961 32.0478 25.1519 32.0922 25.3451 32.0922C25.533 32.0922 25.6851 32.0485 25.8033 31.9613C25.9214 31.8739 25.9801 31.7669 25.9801 31.6401C25.9801 31.5078 25.9196 31.3965 25.7977 31.3065C25.6768 31.2166 25.5239 31.1716 25.3396 31.1716C25.1537 31.1716 25.0007 31.2159 24.8798 31.3038C24.7597 31.3918 24.6992 31.4969 24.6992 31.6196ZM24.5398 32.9739C24.5398 33.077 24.5719 33.1758 24.6361 33.272C24.7002 33.3674 24.7973 33.4418 24.9274 33.4943C25.0566 33.5468 25.1959 33.5734 25.3433 33.5734C25.576 33.5734 25.7667 33.5182 25.9159 33.4077C26.0653 33.2972 26.1395 33.1567 26.1395 32.9862C26.1395 32.813 26.0625 32.6698 25.9096 32.5566C25.7556 32.4434 25.5614 32.3868 25.3278 32.3868C25.0988 32.3868 24.9109 32.4427 24.7625 32.5545C24.614 32.6664 24.5398 32.8062 24.5398 32.9739Z" fill="#FEFEFE"/>
<path fill-rule="evenodd" clip-rule="evenodd" d="M20.1498 1.82612C10.1449 1.82612 2.03221 9.93993 2.03221 19.9516C2.03221 29.9632 10.1449 38.077 20.1498 38.077C30.1546 38.077 38.2673 29.9632 38.2673 19.9516C38.2673 9.93993 30.1546 1.82612 20.1498 1.82612ZM0.330078 19.9516C0.330078 9.00342 9.20243 0.125977 20.1498 0.125977C31.0971 0.125977 39.9695 9.00342 39.9695 19.9516C39.9695 30.8997 31.0971 39.7771 20.1498 39.7771C9.20243 39.7771 0.330078 30.8997 0.330078 19.9516Z" fill="#00214B"/>
</svg>
