<?xml version="1.0" standalone="no"?>
<!DOCTYPE svg PUBLIC "-//W3C//DTD SVG 20010904//EN"
 "http://www.w3.org/TR/2001/REC-SVG-20010904/DTD/svg10.dtd">
<svg version="1.0" xmlns="http://www.w3.org/2000/svg"
 width="159.000000pt" height="159.000000pt" viewBox="0 0 159.000000 159.000000"
 preserveAspectRatio="xMidYMid meet">
<metadata>
Created by potrace 1.14, written by Peter Selinger 2001-2017
</metadata>
<g transform="translate(0.000000,159.000000) scale(0.100000,-0.100000)"
fill="#000000" stroke="none">
<path d="M735 1583 c-215 -36 -340 -93 -469 -213 -123 -114 -199 -254 -242
-445 -10 -41 -11 -198 -2 -243 5 -26 10 -58 13 -72 9 -48 45 -144 77 -199 63
-113 113 -167 254 -281 29 -22 157 -80 224 -101 63 -20 97 -24 215 -24 157 0
229 16 358 81 200 100 348 282 408 500 19 69 21 97 17 233 -5 139 -8 164 -33
231 -96 262 -294 442 -560 510 -73 19 -211 31 -260 23z m245 -87 c94 -24 215
-87 291 -150 253 -211 329 -563 188 -866 -100 -215 -310 -370 -549 -405 -49
-8 -182 -8 -215 -1 -88 19 -132 34 -214 73 -148 72 -276 207 -340 360 -44 104
-59 189 -56 305 6 196 74 354 214 497 165 169 448 246 681 187z"/>
<path d="M730 1479 c-280 -29 -524 -241 -595 -519 -35 -134 -19 -320 38 -449
73 -166 232 -312 403 -371 88 -31 118 -35 244 -34 96 0 128 5 195 27 303 100
491 369 479 685 -8 220 -111 410 -291 539 -138 98 -298 139 -473 122z"/>
</g>
</svg>
